<?xml version="1.0" standalone="no"?>
<!DOCTYPE svg PUBLIC "-//W3C//DTD SVG 1.1//EN" "http://www.w3.org/Graphics/SVG/1.1/DTD/svg11.dtd">
<svg xmlns="http://www.w3.org/2000/svg">
<defs >
<font id="Recursive" horiz-adv-x="627" ><font-face
    font-family="Recursive Sans Linear Light"
    units-per-em="1000"
    panose-1="0 0 0 0 0 0 0 0 0 0"
    ascent="950"
    descent="-250"
    alphabetic="0" />
<glyph unicode=" " horiz-adv-x="300" />
<glyph unicode="!" horiz-adv-x="350" d="M211 261H150Q147 261 146 262T142 264Q141 266 139 271T135 298T129 368T117 502V590Q117 618 117 645T117 700Q139 700 165 700T222 700Q225 700 227 699T231 695T233 689V502Q229 462 226 422T219 341T211 261ZM242
-7Q220 -7 201 -7T161 -7T119 -7Q116 -7 114 -6T110 -2T108 4V130Q130 130 150 130T189 130T231 130Q235 130 237 129T240 125T242 119V-7Z" />
<glyph unicode="&quot;" horiz-adv-x="600" d="M223 445Q209 445 191 445T157 445Q152 445 149 448T145 456L134 648Q133 666 133 682T131 715T129 750Q156 750 180 750T226 750Q232 750 234 747T237 737L223 445ZM455 445Q441 445 423 445T388 445Q383 445 380
448T376 456L366 650Q366 667 365 683T364 716T362 750Q389 750 413 750T460 750Q465 750 468 747T470 737L455 445Z" />
<glyph unicode="#" horiz-adv-x="600" d="M221 720Q238 720 255 720T289 720Q294 720 297 718T298 709Q280 619 262 530T226 350T190 171T154 -9Q153 -16 149 -18T140 -20Q123 -20 107 -20T73 -20Q91 72 109 164T147 350T184 535T221 720ZM444 720Q454 720 465
720T489 720T511 720Q516 720 519 718T520 709Q502 619 484 530T448 350T412 171T376 -9Q375 -16 371 -18T362 -20Q352 -20 341 -20T318 -20T296 -20Q314 72 332 164T370 350T407 535T444 720ZM580 444H71Q66 444 63 447T60 455Q60 459 60 465T60 479T60 495T60
510T60 521H569Q571 521 573 521T577 518Q579 517 579 515T580 510Q580 506 580 499T580 485T580 469T580 455T580 444ZM20 252H529Q534 252 537 249T540 241Q540 237 540 231T540 218T540 203T540 190T540 179H31Q29 179 27 180T23 182Q22 184 21 186T20 190Q20
194 20 200T20 214T20 228T20 242T20 252Z" />
<glyph unicode="$" horiz-adv-x="600" d="M291 -18Q221 -18 163 -1T74 46Q73 48 72 50T71 55Q71 73 71 97T71 142H86Q132 104 180 88T295 72Q371 72 409 98T448 166V198Q448 224 440 242T410 273T345 299L249 328Q201 342 168 361T116 401T87 445T78 494V539Q78
578 95 611T145 668T221 705T320 718Q381 718 433 704T512 664Q514 663 514 661T515 656Q515 635 515 611T515 568H499Q460 602 417 615T315 629Q267 629 234 617T183 584T166 534V508Q166 482 175 466T210 436T279 410L375 382Q435 364 469 340T519 284T534 212V161Q534
109 504 69T420 6T291 -18ZM345 462Q333 465 320 468T301 474Q295 474 293 477T290 486Q290 516 290 549T290 614T290 675T290 723Q290 734 290 751T290 788T290 825T290 854Q305 854 316 854T338 854T364 854Q369 854 372 851T374 841Q372 821 370 788T364 712T358
625T351 538T345 462ZM269 248Q280 245 293 242T313 236Q319 235 321 231T324 220Q324 206 324 183T324 133T324 79T324 29T324 -8Q324 -18 324 -41T324 -91T324 -139T324 -171Q310 -171 298 -171T274 -171T248 -171Q245 -171 243 -170T239 -165T238 -157Q240 -137
243 -101T249 -20T256 74T262 168T269 248Z" />
<glyph unicode="%" horiz-adv-x="600" d="M174 710Q223 710 256 691T307 639T325 563V505Q325 463 308 430T257 377T174 358Q102 358 63 399T24 505V563Q24 606 41 639T93 691T174 710ZM95 513Q95 489 101 472T117 443Q128 433 142 428T174 423Q214 423 233 446T253
513V555Q253 578 248 596T232 624Q212 644 174 644Q135 644 115 622T95 555V513ZM426 342Q474 342 507 323T558 271T576 195V137Q576 95 559 62T508 9T426 -10Q354 -10 315 31T275 137V195Q275 238 292 271T344 323T426 342ZM347 145Q347 121 352 104T369 76Q379
66 393 61T426 56Q465 56 485 79T505 145V187Q505 211 500 228T483 257Q463 277 426 277Q387 277 367 254T347 187V145ZM366 405Q374 422 384 446T405 498T427 557T450 617T471 670T489 710Q492 710 503 710T529 710T554 710T569 710Q573 710 575 709T578 704T577
697Q576 692 566 671T543 619T514 554T485 488T462 437T452 412Q450 408 448 407T442 405Q438 405 428 405T404 405T381 405T366 405ZM234 296Q226 280 216 256T195 203T173 144T150 84T129 31T111 -9Q108 -9 97 -9T71 -9T46 -9T31 -9Q27 -9 25 -8T22 -3T23 4Q24
8 33 29T57 82T86 147T115 213T138 265T148 289Q150 294 152 295T158 296Q162 296 172 296T196 296T219 296T234 296Z" />
<glyph unicode="&amp;" horiz-adv-x="600" d="M228 448Q259 404 290 359T351 274T403 200T443 144T466 113Q480 95 492 89T524 82Q532 82 540 82T557 82H572Q572 62 572 43T572 5Q572 0 570 -3T561 -6Q552 -6 540 -6T515 -6Q490 -6 469 1T430 23T394 62Q386 74
368 99T326 157T276 228T223 302T174 371Q143 414 126 441T102 491T95 542V551Q95 584 108 613T146 663T211 697T305 709Q348 709 380 704T433 691T459 678Q461 676 462 674T463 668Q463 651 463 633T463 597H448Q413 611 380 618T305 625Q267 625 243 618T204
596Q194 586 190 574T185 545Q185 531 188 520T199 492T228 448ZM206 -9Q152 -9 114 9T56 64T36 153V207Q36 277 69 318T161 372V414L236 335Q203 334 179 321T141 284T127 231V170Q127 124 151 98T227 72Q265 72 296 86T362 135L412 73H371Q346 33 306 12T206
-9ZM457 436Q476 436 495 436T534 436Q539 436 542 433T545 425V343Q545 298 534 264T502 202T450 152V109L401 177Q429 209 443 240T457 317Q457 350 457 378T457 436Z" />
<glyph unicode="&apos;" horiz-adv-x="350" d="M215 445Q198 445 181 445T146 445Q142 445 139 448T134 456L124 648Q123 666 123 682T121 715T119 750Q147 750 172 750T220 750Q226 750 228 747T231 737L215 445Z" />
<glyph unicode="(" horiz-adv-x="400" d="M260 748Q264 753 269 754T280 756Q296 756 310 756T339 756T371 756V741Q307 682 266 615T205 471T185 311V303Q185 221 205 145T266 0T371 -126V-141Q354 -141 339 -141T310 -141T280 -141Q275 -141 270 -140T260 -133Q202
-76 165 -7T110 141T92 303V311Q92 396 110 473T165 620T260 748Z" />
<glyph unicode=")" horiz-adv-x="400" d="M140 -133Q136 -138 131 -139T120 -141Q104 -141 90 -141T61 -141T29 -141V-126Q93 -67 134 0T195 144T215 303V311Q215 395 195 471T134 615T29 741V756Q46 756 60 756T89 756T120 756Q125 756 130 755T140 748Q198 690
235 621T290 474T308 311V303Q308 219 291 141T236 -5T140 -133Z" />
<glyph unicode="*" horiz-adv-x="600" d="M340 763Q345 763 347 760T350 752Q345 711 341 683T331 631T318 579L332 570Q356 591 377 607T423 642T483 686Q494 666 505 647T527 608Q530 604 529 601T523 595Q489 580 462 570T408 553T353 537V521Q386 511 412
502T466 482T533 455Q522 435 511 416T489 377Q486 373 483 372T474 373Q445 396 422 413T378 447T331 487L318 479Q324 457 327 440T334 410T339 381Q342 366 343 352T347 325T351 296Q328 296 305 296T259 295Q254 295 252 298T249 306Q254 342 258 369T268 423T280
479L267 487Q241 464 219 445T173 408T116 366Q105 386 94 404T71 442Q68 448 69 452T75 457Q110 472 136 482T189 502T248 521V537Q215 547 188 555T132 575T66 602Q77 622 88 641T110 680Q114 685 117 685T125 684Q157 661 179 644T221 610T265 570L278 579Q275
597 272 612T267 642T261 677Q257 698 254 718T248 762Q271 762 294 762T340 763Z" />
<glyph unicode="+" horiz-adv-x="600" d="M254 531Q277 531 296 531T335 531Q340 531 343 528T346 520Q346 445 346 370T346 220T346 70Q325 70 306 70T265 70Q260 70 257 73T254 81Q254 139 254 197T254 315T254 432Q254 464 254 489T254 531ZM69 345H520Q524
345 526 344T529 340T531 334Q531 314 531 295T531 255H80Q77 255 75 256T71 260T69 266Q69 286 69 305T69 345Z" />
<glyph unicode="," horiz-adv-x="350" d="M142 -203Q125 -203 105 -203T67 -203Q77 -160 86 -118T105 -35T125 48T145 133Q164 133 180 133T212 133T249 133Q253 133 255 132T258 127T257 119Q246 84 233 45T207 -34T180 -115T153 -195Q151 -200 149 -201T142 -203Z" />
<glyph unicode="-" horiz-adv-x="450" d="M76 344H363Q367 344 369 343T372 339T374 333Q374 313 374 295T374 255H87Q84 255 82 255T79 257T77 261T76 266Q76 287 76 305T76 344Z" />
<glyph unicode="." horiz-adv-x="350" d="M242 -7Q220 -7 201 -7T161 -7T119 -7Q116 -7 114 -6T110 -2T108 4V130Q130 130 150 130T189 130T231 130Q235 130 237 129T240 125T242 119V-7Z" />
<glyph unicode="/" horiz-adv-x="600" d="M534 750Q478 606 421 461T306 171T191 -119Q190 -123 188 -125T182 -129T176 -130Q153 -130 134 -130T90 -130Q101 -103 112 -76T133 -21Q184 106 234 233T335 488T435 743Q437 747 440 748T447 750Q471 750 491 750T534 750Z" />
<glyph unicode="0" horiz-adv-x="600" d="M302 720Q372 720 424 686T506 590T535 445V255Q535 169 505 108T422 13T299 -20Q246 -20 203 -1T129 55T82 142T65 255V445Q65 531 95 592T178 687T302 720ZM300 634Q257 634 225 615T174 554T156 445V255Q156 227 159
204T169 162T184 130Q201 99 230 83T298 66Q341 66 374 86T425 147T444 255V447Q444 483 438 511T422 562T396 598Q379 617 355 625T300 634ZM451 560L463 467H403L435 492Q425 465 411 443T380 400T344 360Q312 323 279 288T213 217T146 145L122 241H192L163 217Q174
242 186 261T216 302T260 351Q307 404 355 456T451 560Z" />
<glyph unicode="1" horiz-adv-x="600" d="M278 710Q283 710 292 710T314 710T337 710T358 710T370 710Q374 710 376 709T379 705T381 699Q381 696 381 662T381 575T381 458T381 328T381 205T381 106T381 52H283L289 75Q289 84 289 98T289 127T289 150Q289 159
289 187T289 256T289 346T289 442T289 533T289 603T289 642L307 618H257L287 639Q271 612 257 593T227 558T186 521Q164 501 148 487T121 466T107 459Q104 459 102 460T100 464T99 471V557Q122 576 144 595T189 634Q205 647 221 660T252 687T278 710ZM86 86Q88
86 113 86T179 86T266 86T360 86T447 86T512 86T539 86Q544 86 547 83T550 75Q550 71 550 61T550 38T550 16T550 0Q547 0 522 0T457 0T370 0T276 0T190 0T125 0T97 0Q94 0 93 1T89 3Q88 5 87 7T86 11Q86 15 86 22T86 39T86 58T86 75T86 86Z" />
<glyph unicode="2" horiz-adv-x="600" d="M298 720Q355 720 397 708T468 674T509 620T523 551V529Q523 493 515 464T485 410T428 356T336 293Q278 256 243 228T188 175T163 120T156 52L128 72H197L142 63Q165 71 186 76T234 83T301 86H527Q532 86 535 83T538 75Q538
72 538 65T538 48T538 28T538 11T538 0Q536 0 510 0T444 0T355 0T259 0T171 0T105 0T77 0Q74 0 72 1T68 5T66 11V68Q66 131 87 178T156 269T282 362Q332 394 361 416T406 457T426 492T431 530V539Q431 559 426 574T408 602Q395 617 368 624T291 632Q235 632 189
615T100 560H85Q85 564 85 572T85 590T85 610T85 627T85 638Q85 644 86 647T91 654Q119 680 172 700T298 720Z" />
<glyph unicode="3" horiz-adv-x="600" d="M286 720Q364 720 417 698T497 637T525 551V530Q525 488 507 454T447 396T338 360L367 390V326L338 355Q411 345 454 321T516 264T535 193V166Q535 112 505 70T420 4T283 -20Q233 -20 191 -13T119 5T74 28Q70 31 69 34T67
43Q67 45 67 52T67 70T67 92T67 112T67 125H82Q113 105 141 93T203 75T281 70Q332 70 367 83T422 120T441 180V192Q441 223 425 245T376 283T293 306T174 314Q169 314 166 316T163 325Q163 329 163 339T163 362T163 385T163 399Q240 399 292 408T374 432T418 470T432
520V530Q432 559 416 581T367 617T284 630Q223 630 183 619T97 579H81Q81 583 81 591T81 609T81 628T81 646T81 658Q81 663 82 665T87 669Q110 688 162 704T286 720Z" />
<glyph unicode="4" horiz-adv-x="600" d="M339 700Q344 700 352 700T371 700T392 700T411 700T423 700V685Q395 640 367 595T309 503T250 409T189 312T125 209L144 266V201L116 217Q151 226 185 230T256 236T338 238H549Q553 238 555 237T558 233T560 227Q560
224 560 217T560 201T560 183T560 166T560 155H60Q57 155 55 156T51 160T49 166V238Q49 238 59 255T86 301T127 369T175 449T226 535T276 618T320 691Q323 695 326 697T332 699T339 700ZM404 398Q409 398 418 398T438 398T457 398T471 398Q475 398 477 397T480
393T482 387V99Q482 90 482 76T482 46T482 18T482 0Q479 0 471 0T453 0T433 0T414 0T402 0Q397 0 394 3T391 11Q391 23 391 45T391 93T391 145T391 192T391 227Q393 246 395 270T399 318T402 363T404 398Z" />
<glyph unicode="5" horiz-adv-x="600" d="M123 700Q126 700 148 700T202 700T273 700T350 700T422 700T475 700T497 700Q502 700 505 697T508 689Q508 685 508 678T508 663T508 645T508 629T508 618Q506 618 483 618T425 618T350 618T274 618T215 618T187 618Q167
618 153 626T131 647T123 676Q123 682 123 687T123 700ZM123 700H216L210 673Q208 662 207 647T202 604Q199 570 194 526T184 440T175 362L160 387H221L162 363Q197 394 238 406T337 419Q386 419 422 407T484 372T522 314T535 235V188Q535 142 519 104T471 39T394
-4T289 -20Q239 -20 198 -13T127 5T80 30Q77 33 76 35T75 41Q75 45 75 53T75 72T75 93T75 112T75 125H91Q135 95 180 83T289 70Q365 70 404 104T443 196V223Q443 261 430 287T388 327T311 342Q274 342 239 335T171 313H94Q89 313 86 316T83 327Q85 342 88 373T96
445T105 531T114 620T123 700Z" />
<glyph unicode="6" horiz-adv-x="600" d="M342 720Q397 720 439 707T501 679Q505 676 506 673T508 664Q508 660 508 653T508 637T508 617T508 599T508 587H493Q454 612 416 623T331 634Q288 634 259 623T206 590Q181 564 170 524T158 428V265Q158 222 162 190T177
134T202 95Q220 77 245 69T303 61Q372 61 410 96T449 200V223Q449 257 442 278T422 313Q405 329 378 339T309 349Q263 349 223 334T144 287L129 375H196L156 355Q186 393 228 412T331 432Q394 432 440 410T513 348T539 248V187Q539 127 510 80T428 7T306 -20Q226
-20 172 11T92 107T65 269V416Q65 482 79 532T120 618T180 676T256 709T342 720Z" />
<glyph unicode="7" horiz-adv-x="600" d="M62 700Q73 700 85 699T110 693T132 682T147 668T153 650Q153 638 153 619T153 579T153 537T153 504T153 488Q150 488 142 488T123 488T103 488T85 488T73 488Q68 488 65 491T62 499Q62 503 62 522T62 569T62 623T62 672T62
700ZM298 0Q294 0 286 0T267 0T245 0T226 0T214 -1Q209 -1 206 2T203 10Q203 14 210 33T234 94T278 203T347 371Q361 404 375 436T404 501T438 566T479 636L454 578V646L491 618Q452 616 418 615T353 614T293 614H124Q116 614 107 618T90 631T75 651T66 674T62
700H533Q537 700 539 699T542 695T544 689V620Q544 619 538 602T521 556T495 490T463 410T427 321Q412 285 397 248T366 170T333 88T298 0Z" />
<glyph unicode="8" horiz-adv-x="600" d="M302 716Q372 716 422 695T499 636T527 546V528Q527 488 507 455T450 399T364 368L398 391V339L288 382Q358 402 399 437T440 518V531Q440 552 434 570T413 602Q396 618 368 627T299 635Q256 635 226 622T179 585T163
531V518Q163 494 172 475T204 441T269 410L384 367Q423 352 452 335T502 295T531 246T541 187V163Q541 110 513 69T430 6T300 -16Q225 -16 171 4T88 63T59 154V173Q59 214 76 250T133 310T234 342L201 322V368L310 324Q258 314 222 295T165 249T145 183V170Q145
135 163 112T216 76T299 64Q374 64 413 90T453 172V185Q453 210 444 229T411 264T348 296L232 339Q176 360 142 384T91 440T75 520V539Q75 588 102 628T180 692T302 716Z" />
<glyph unicode="9" horiz-adv-x="600" d="M293 720Q355 720 401 703T477 650T522 562T538 437V279Q538 207 520 152T468 58T383 0T266 -20Q230 -20 196 -14T135 1T95 23Q92 25 90 27T88 35Q88 39 88 46T88 62T88 79T88 96T88 107H104Q145 82 182 72T267 62Q309
62 342 74T395 107Q419 131 432 172T445 270V439Q445 498 434 539T401 602Q383 619 358 627T297 636Q230 636 192 601T153 500V459Q153 428 159 408T180 374Q196 358 223 350T288 341Q337 341 378 356T458 403V317H412L443 338Q421 297 374 278T271 258Q207 258
161 280T89 345T64 449V505Q64 570 93 618T174 693T293 720Z" />
<glyph unicode=":" horiz-adv-x="350" d="M242 386Q220 386 201 386T161 386T119 386Q116 386 114 387T110 391T108 397V523Q130 523 150 523T189 523T231 523Q235 523 237 522T240 518T242 512V386ZM242 -7Q220 -7 201 -7T161 -7T119 -7Q116 -7 114 -6T110 -2T108
4V130Q130 130 150 130T189 130T231 130Q235 130 237 129T240 125T242 119V-7Z" />
<glyph unicode=";" horiz-adv-x="350" d="M242 395Q220 395 201 395T161 395T119 395Q116 395 114 396T110 400T108 406V532Q130 532 150 532T189 532T231 532Q235 532 237 531T240 527T242 521V395ZM142 -203Q125 -203 105 -203T67 -203Q77 -160 86 -118T105
-35T125 48T145 133Q164 133 180 133T212 133T249 133Q253 133 255 132T258 127T257 119Q246 84 233 45T207 -34T180 -115T153 -195Q151 -200 149 -201T142 -203Z" />
<glyph unicode="&lt;" horiz-adv-x="600" d="M80 366Q127 390 181 417T292 472T407 528T520 583Q520 562 520 541T520 498Q520 492 518 489T510 482Q484 469 451 452T380 417T303 379T224 341T149 303L161 328V274L149 297Q195 274 244 250T342 202T434 157T510
117Q516 114 518 111T520 101Q520 80 520 59T520 16Q449 51 378 86T235 156T92 225Q88 228 85 230T81 236T80 244Q80 275 80 306T80 366Z" />
<glyph unicode="=" horiz-adv-x="600" d="M69 471H520Q524 471 526 470T529 466T531 460Q531 440 531 422T531 383H80Q77 383 75 384T71 388T69 394Q69 414 69 432T69 471ZM69 217H520Q524 217 526 216T529 212T531 206Q531 186 531 168T531 128H80Q77 128 75
129T71 133T69 139Q69 160 69 178T69 217Z" />
<glyph unicode="&gt;" horiz-adv-x="600" d="M520 233Q473 209 419 183T308 128T193 72T80 16Q80 37 80 58T80 101Q80 108 82 111T90 117Q116 131 149 147T220 183T297 221T376 259T451 296L439 271V325L451 303Q405 326 356 350T258 398T166 443T90 482Q84 485
82 488T80 498Q80 520 80 541T80 583Q151 548 222 514T365 444T508 374Q513 372 515 370T519 364T520 356Q520 325 520 295T520 233Z" />
<glyph unicode="?" horiz-adv-x="600" d="M360 -7Q328 -7 289 -7T216 -7Q213 -7 211 -6T207 -2T205 4V142Q238 142 277 142T349 142Q353 142 355 141T358 137T360 131V-7ZM298 720Q355 720 397 708T467 673T509 622T523 558V527Q523 493 514 468T484 420T427 373L388
347Q359 327 345 314T327 286T322 250V243H241Q238 243 236 244T232 247T230 254V269Q230 298 238 320T266 363T325 410L360 434Q389 454 404 467T425 495T431 529Q431 537 430 543T426 557Q422 593 391 611T297 630Q242 630 195 616T99 565H84Q84 586 84 607T84
649Q84 652 85 654T88 658Q105 676 137 690T210 712T298 720Z" />
<glyph unicode="@" horiz-adv-x="1050" d="M525 738Q631 738 713 711T850 635T934 519T963 371V263Q963 216 952 178T916 113T855 71T764 56H756Q709 56 679 69T633 109T618 177Q618 200 618 231T618 296T618 362T618 419Q618 420 621 431T629 459T639 495H695Q700
495 703 492T706 484Q706 458 706 420T706 340T706 256T706 182Q706 155 718 142T758 129H762Q805 129 831 141T870 183T882 263V370Q882 409 875 444T851 512T808 570Q780 599 739 619T645 651T525 663Q399 663 321 624T205 518T168 370V189Q168 147 175 111T199
43T241 -15Q284 -58 355 -81T531 -105Q599 -105 649 -97T738 -75T813 -44H829V-105Q829 -109 828 -111T825 -115Q814 -125 780 -140T684 -168T531 -180Q416 -180 332 -154T194 -80T114 36T87 188V368Q87 450 115 518T199 635T337 711T525 738ZM471 53Q433 53 403
69T356 118T338 198V361Q338 397 348 423T375 468T417 495T471 505Q517 505 549 486T609 433H640L635 350Q597 391 565 406T500 421Q482 421 468 416T445 402T431 378T426 345V215Q426 179 445 159T500 139Q521 139 542 146T586 169T635 215L645 129H614Q585 91
551 72T471 53Z" />
<glyph unicode="A" horiz-adv-x="650" d="M148 278H402Q414 278 425 278T448 278L476 288L486 241L496 197H158Q155 197 153 198T149 202T147 208L148 278ZM128 0Q108 0 88 0T47 0Q44 0 42 1T39 6T39 14Q51 52 65 97T94 195T125 301T158 410T189 518T219 618T246
706Q285 706 327 706T401 706Q405 706 407 705T411 701T413 695Q433 626 454 555T497 409T541 257T587 99Q593 74 599 50T612 0Q593 0 571 0T529 0Q525 0 522 1T517 7T513 18Q493 88 473 159T433 300T394 433T361 551T335 646L363 628H294L322 645Q310 604 295
553T261 439T221 307T176 159T128 0Z" />
<glyph unicode="B" horiz-adv-x="600" d="M332 0Q304 0 267 0T195 0T133 0T101 0Q96 0 93 3T90 11Q90 94 90 173T90 329T90 485T90 648H190L183 631Q183 590 183 554T183 478Q183 429 183 380T183 283T183 184T183 82Q207 82 228 82T269 82T313 82Q357 82 384
95T424 132T437 189V217Q437 246 424 268T380 302T291 315H139L142 375H409V351Q469 339 500 302T531 205V178Q531 117 507 78T437 19T332 0ZM30 700Q100 700 170 700T311 700Q368 700 408 688T474 654T510 602T522 538V514Q522 473 508 443T467 393T399 362T304
352Q259 352 223 352T154 352L142 343L139 395Q178 395 216 395T292 395Q347 395 376 408T417 445T429 501V526Q429 547 424 563T406 590Q393 603 370 610T312 618Q267 618 222 618T132 618T41 618Q36 618 33 621T30 629Q30 648 30 664T30 700Z" />
<glyph unicode="C" horiz-adv-x="600" d="M333 -20Q267 -20 217 -2T133 50T82 134T65 247V457Q65 518 82 566T133 648T216 701T327 720Q377 720 416 711T482 687T527 654Q529 653 530 651T531 646T532 641Q532 605 532 563T532 483Q513 483 494 483T456 483Q451
483 448 486T445 494Q445 515 445 537T445 583T445 635L470 588Q439 613 405 623T326 633Q275 633 238 613T181 554T161 453V255Q161 207 172 170T209 107Q231 85 263 76T333 66Q390 66 432 81T519 130H535Q535 120 535 111T535 92T535 74T535 56Q535 52 534 49T530
44Q511 25 482 11T415 -11T333 -20Z" />
<glyph unicode="D" horiz-adv-x="650" d="M583 242Q583 181 565 135T513 60T431 15T326 0Q302 0 276 0T224 0T174 0T131 0T101 0Q96 0 93 3T90 11Q90 92 90 172T90 333T90 494T90 656H195L186 639Q186 612 186 583T186 525Q186 469 186 415T186 306T186 198T186
86Q203 86 225 86T273 86T323 86Q382 86 419 104T474 157T492 248V452Q492 483 488 507T474 549T449 580Q434 593 416 600T374 611T318 614Q283 614 247 614T175 614T105 614T41 614Q38 614 36 615T32 619T30 625Q30 642 30 662T30 700Q60 700 95 700T169 700T246
700T326 700Q390 700 438 685T518 640T567 564T583 458V242Z" />
<glyph unicode="E" horiz-adv-x="550" d="M24 700H483Q487 700 489 699T492 695T494 689Q494 669 494 653T494 616H35Q32 616 30 617T26 621T24 627Q24 648 24 664T24 700ZM137 395H429Q432 395 434 394T438 390T440 384Q440 371 440 359T440 337T440 313H137V395ZM95
0Q93 0 91 1T88 3T85 7T84 11Q84 59 84 119T84 246T84 384T84 524T84 659H186L179 643Q179 622 179 600T179 555Q179 502 179 443T179 323T179 201T179 84H483Q488 84 491 81T494 73Q494 54 494 37T494 0H95Z" />
<glyph unicode="F" horiz-adv-x="550" d="M199 0Q178 0 157 0T115 0Q112 0 110 1T106 5T104 11Q104 93 104 174T104 335T104 496T104 658H208L199 639Q199 615 199 592T199 545Q199 467 199 389T199 238T199 98Q199 74 199 50T199 0ZM44 700H479Q483 700 485 699T488
695T490 689Q490 676 490 665T490 642T490 616H55Q52 616 50 617T46 621T44 627Q44 648 44 664T44 700ZM153 372H437Q442 372 445 369T448 361Q448 348 448 336T448 313T448 289H153V372Z" />
<glyph unicode="G" horiz-adv-x="650" d="M339 361H605Q608 361 610 360T614 356T616 350V279H350Q347 279 345 280T342 282T340 286T339 290Q339 309 339 325T339 361ZM349 720Q392 720 427 715T489 701T536 680T569 656Q571 653 572 650T573 642Q573 621 573
596T573 547T573 498Q554 498 535 498T497 498Q492 498 489 501T486 509Q486 529 486 549T486 590T486 636L511 589Q482 614 441 623T342 633Q299 633 265 622T207 586T171 524T158 436V242Q158 199 170 166T206 109Q226 89 258 78T339 66Q383 66 414 76T464 98T487
118Q487 154 487 185T487 247T487 313H579L574 295Q574 239 574 191T574 85Q574 80 573 77T569 69Q549 44 515 24T436 -8T346 -20Q276 -20 223 -2T135 51T83 133T65 242V441Q65 507 83 559T137 646T226 701T349 720Z" />
<glyph unicode="H" horiz-adv-x="650" d="M82 700Q103 700 124 700T166 700Q171 700 174 697T177 689Q177 603 177 517T177 345T177 172T177 0Q156 0 135 0T93 0Q90 0 88 1T84 5T82 11Q82 108 82 206T82 402T82 598Q82 624 82 649T82 700ZM130 395H430Q442 395
453 395T476 395L504 405L518 311H141Q139 311 137 312T134 314T131 318T130 322V395ZM568 0Q547 0 526 0T484 0Q481 0 479 1T475 5T473 11Q473 97 473 183T473 355T473 528T473 700Q494 700 515 700T557 700Q559 700 561 699T564 697T567 693T568 689Q568 617
568 543T568 396T568 250T568 104Q568 77 568 51T568 0Z" />
<glyph unicode="I" horiz-adv-x="500" d="M298 47H199L202 73Q202 91 202 112T202 152Q202 214 202 276T202 401T202 527T202 653H303L298 627Q298 611 298 593T298 558Q298 494 298 430T298 302T298 175T298 47ZM424 0H87Q84 0 82 1T79 3T77 7T76 11Q76 24 76
35T76 59T76 84H413Q416 84 418 83T422 79T424 73Q424 60 424 48T424 25T424 0ZM76 700H413Q418 700 421 697T424 689Q424 679 424 670T424 653T424 635T424 616H87Q82 616 79 619T76 627Q76 637 76 646T76 663T76 681T76 700Z" />
<glyph unicode="J" horiz-adv-x="500" d="M204 70Q234 70 257 78T298 103Q311 116 320 134T333 177T338 236Q338 284 338 333T338 433T338 537T338 645L353 605L325 633L368 616Q331 616 299 616T235 616T171 616T101 616Q98 616 96 617T92 621T90 627Q90 646
90 663T90 700Q134 700 175 700T255 700T334 700T419 700Q423 700 425 699T429 695T430 689Q430 631 430 574T430 459T430 345T430 231Q430 171 416 124T373 45T302 -3T203 -20Q169 -20 139 -14T88 1T56 20Q55 22 54 23T53 26T52 32Q52 50 52 69T52 109H67Q89 96
110 88T155 75T204 70Z" />
<glyph unicode="K" horiz-adv-x="600" d="M294 399Q340 329 387 259T480 118Q493 98 504 92T535 85Q542 85 546 85T556 85H564Q564 75 564 64T564 41T564 22T564 11Q564 6 561 3T553 0Q550 0 545 0T535 0T522 0Q493 0 473 5T435 26T399 69Q377 105 359 133T325
187T298 236T276 287H236L294 399ZM545 700Q548 700 549 699T552 697T553 693Q553 691 551 687T542 671T516 636Q498 611 474 578T420 506T359 423T293 333T223 239T153 145V301H186Q196 324 208 347T236 393T268 441T302 490Q325 523 350 559T400 631T449 700H545ZM78
700Q99 700 119 700T160 700Q165 700 168 697T171 689Q171 603 171 517T171 345T171 172T171 0Q150 0 130 0T89 0Q84 0 81 3T78 11Q78 109 78 206T78 402T78 598Q78 624 78 649T78 700Z" />
<glyph unicode="L" horiz-adv-x="550" d="M93 0Q90 0 88 0T85 2T83 6T82 11Q82 92 82 175T82 338T82 487T82 608Q82 631 82 654T82 700Q103 700 124 700T166 700Q170 700 172 699T175 695T177 689Q177 614 177 538T177 386T177 235T177 84H426Q442 84 454 78T474
61T487 35T494 0H93ZM407 182Q420 182 432 182T457 182T483 182Q486 182 488 181T492 177T494 171Q494 152 494 131T494 86T494 40T494 0Q460 2 441 10T415 33T407 68Q407 86 407 105T407 145T407 182Z" />
<glyph unicode="M" horiz-adv-x="800" d="M173 0Q153 0 133 0T93 0Q90 0 88 1T84 5T82 11Q82 85 82 158T82 306T82 454T82 601Q82 626 82 650T82 700Q96 700 119 700T165 700T201 700Q207 700 210 699T216 694T222 682Q241 638 259 593T297 502T335 409T373 313T413
216L366 270H434L386 216Q407 265 427 316T468 416T507 515T546 610T583 700Q598 700 622 700T670 700T707 700Q710 700 712 699T716 695T718 689Q718 666 718 627T718 539T718 433T718 320T718 206T718 101Q718 84 718 68T718 34T718 0Q696 0 676 0T638 0Q635
0 633 1T629 5T627 11Q627 34 627 57T627 104T627 150Q627 184 627 217T628 285T630 354T633 428T637 508T643 595L663 568H596L635 600Q616 554 595 505T553 406T512 306T472 212T436 126Q419 126 403 126T369 126Q366 126 363 127T357 135Q346 162 329 202T292
292T251 393T207 497T166 596L204 568H139L155 598Q159 552 162 510T167 430T170 356T171 286T172 218T173 150Q173 113 173 76T173 0Z" />
<glyph unicode="N" horiz-adv-x="650" d="M159 0Q139 0 119 0T79 0Q76 0 74 1T70 5T68 11Q68 82 68 152T68 293T68 435T68 577Q68 607 68 638T68 700Q84 700 105 700T146 700T183 700Q187 700 190 699T196 694T204 680Q221 648 242 607T289 517T342 417T397 310T453
203T505 100L465 131H527L510 113Q505 160 502 205T496 294T493 381T492 466T491 550Q491 585 491 623T491 700Q511 700 531 700T571 700Q576 700 579 697T582 689Q582 621 582 552T582 415T582 278T582 140Q582 105 582 70T582 0Q568 0 550 0T513 0T481 0Q475
0 469 3T455 22Q416 91 378 163T300 310T222 460T145 610L185 574H127L142 601Q147 549 149 501T154 407T157 319T159 237T159 161Q158 126 158 83T159 0Z" />
<glyph unicode="O" horiz-adv-x="650" d="M326 720Q399 720 457 690T549 600T583 446V245Q583 156 548 97T455 9T324 -20Q254 -20 196 9T102 97T67 245V446Q67 539 101 599T194 690T326 720ZM158 247Q158 191 173 157T210 104Q228 87 256 76T326 64Q375 64 411
85T470 148T492 250V455Q492 491 486 517T469 563T443 597Q424 615 395 625T326 636Q268 636 231 614T176 551T158 455V247Z" />
<glyph unicode="P" horiz-adv-x="600" d="M185 0Q164 0 143 0T101 0Q96 0 93 3T90 11Q90 93 90 173T90 332T90 492T90 653H193L185 635Q185 611 185 591T185 549Q185 474 185 400T185 251T185 99Q185 73 185 48T185 0ZM30 700Q100 700 173 700T312 700Q352 700
387 693T450 672T498 636T528 581T539 504V439Q539 393 526 357T484 295T414 256T315 242Q280 242 245 242T173 242L162 238V325Q202 325 240 325T313 325Q346 325 370 332T410 353T434 388T442 439V510Q442 536 436 555T417 587Q401 602 375 609T311 617Q266 617
221 617T131 617T41 617Q36 617 33 620T30 628Q30 647 30 664T30 700Z" />
<glyph unicode="Q" horiz-adv-x="650" d="M465 71Q484 43 500 19T536 -33Q548 -49 558 -53T583 -58Q589 -58 592 -58T600 -58H614Q614 -78 614 -99T614 -141Q614 -146 611 -149T603 -152Q597 -152 588 -152T571 -152Q544 -152 526 -146T493 -125T466 -90Q446 -58
427 -29T388 32L465 71ZM326 720Q399 720 457 690T549 600T583 446V245Q583 156 548 97T455 9T324 -20Q254 -20 196 9T102 97T67 245V446Q67 539 101 599T194 690T326 720ZM158 247Q158 191 173 157T210 104Q228 87 256 76T326 64Q375 64 411 85T470 148T492 250V455Q492
491 486 517T469 563T443 597Q424 615 395 625T326 636Q268 636 231 614T176 551T158 455V247Z" />
<glyph unicode="R" horiz-adv-x="600" d="M369 326Q398 273 425 223T480 119Q492 99 502 92T529 84Q535 84 538 84T546 84H560Q560 64 560 48T560 11Q560 6 557 3T549 0Q542 0 533 0T515 0Q487 0 467 7T431 29T401 70Q373 125 345 179T289 288L369 326ZM30 700Q100
700 171 700T312 700Q366 700 406 687T472 648T510 587T523 506V457Q523 414 510 379T470 319T407 281T323 268Q286 268 249 268T173 268L162 261V350Q200 350 237 350T313 350Q352 350 377 362T416 398T429 459V507Q429 533 422 553T401 587Q388 601 366 608T313
616Q268 616 223 616T132 616T41 616Q36 616 33 619T30 627Q30 646 30 663T30 700ZM183 0Q162 0 142 0T101 0Q96 0 93 3T90 11Q90 93 90 173T90 332T90 492T90 653H195L183 635Q183 589 183 544T183 453Q183 394 183 337T183 221T183 99Q183 73 183 48T183 0Z"
/>
<glyph unicode="S" horiz-adv-x="600" d="M319 718Q387 718 437 703T511 662Q516 658 517 654T519 645Q519 625 519 603T519 559T519 515Q500 515 481 515T441 515Q436 515 433 518T430 526Q430 539 430 552T430 580T430 609T430 640L458 596Q434 615 400 624T319
634Q284 634 257 627T211 607T181 573T171 528V508Q171 482 179 463T210 430T273 404L369 376Q415 362 447 347T498 312T525 267T534 206V168Q534 112 506 70T423 5T291 -18Q242 -18 200 -11T126 10T76 40Q72 44 71 47T70 57Q70 69 70 81T70 105T70 131H85Q130
96 178 81T295 66Q367 66 405 94T443 170V197Q443 222 435 238T404 268T339 293L242 322Q195 336 164 353T115 392T88 439T80 497V535Q80 576 97 609T146 666T222 704T319 718Z" />
<glyph unicode="T" horiz-adv-x="600" d="M56 700H533Q538 700 541 697T544 689Q544 669 544 653T544 616H67Q64 616 62 617T58 621T56 627Q56 648 56 664T56 700ZM348 0Q327 0 306 0T263 0Q258 0 255 3T252 11Q252 93 252 173T252 333T252 494T252 656H356L348
637Q348 613 348 587T348 536T348 486Q348 422 348 359T348 231T348 99Q348 73 348 48T348 0Z" />
<glyph unicode="U" horiz-adv-x="650" d="M568 0Q554 0 540 0T512 0T484 0Q482 0 480 0T477 2T475 4T474 7T473 11Q473 97 473 183T473 355T473 528T473 700Q487 700 501 700T529 700T557 700Q560 700 562 699T566 695T568 689Q568 616 568 543T568 397T568 250T568
104Q568 77 568 51T568 0ZM253 -16Q209 -16 177 -4T123 33T90 91T79 170Q79 234 79 304T79 450T79 601Q79 626 79 650T79 700Q100 700 121 700T163 700Q167 700 169 699T172 695T174 689Q174 604 174 516T174 342T174 175Q174 124 200 97T275 70Q315 70 352 85T424
137T494 236V97H453Q429 62 400 37T335 -2T253 -16Z" />
<glyph unicode="V" horiz-adv-x="650" d="M124 700Q127 700 129 699T132 695T136 685Q164 587 188 501T236 338T280 187T324 42L287 73H361L326 42Q343 98 360 155T396 274T435 402T477 542T523 700Q544 700 565 700T608 700Q610 700 611 699T614 695T614 688Q601
646 584 591T549 472T511 344T473 216T438 96T406 -6Q369 -6 329 -6T259 -6Q250 -6 247 -2T240 15Q227 56 213 104T182 205T150 314T117 427T83 542Q76 568 68 594T52 646T36 700Q58 700 80 700T124 700Z" />
<glyph unicode="W" horiz-adv-x="950" d="M37 700Q51 700 66 700T96 700T124 700Q128 700 131 699T135 694T138 687Q148 638 159 585T183 473T207 351T232 220T257 80L234 96H293L270 81Q285 145 304 224T346 387T389 552T427 700H516Q519 700 521 699T525 696T528
690Q542 636 558 574T592 445T627 315T658 190T684 80L661 96H717L699 85Q710 160 722 225T745 350T767 466T791 580T816 700Q830 700 844 700T874 700T902 700Q907 700 909 698T913 693T913 684Q904 646 893 596T870 489T844 369T817 243T790 117T765 -4Q752 -4
735 -4T700 -4T666 -4T638 -4Q632 -4 628 -1T621 12Q607 67 590 132T553 272T514 427T475 596L511 554H446L477 596Q461 527 445 456T411 318T378 190T349 80T327 -4Q310 -4 286 -4T239 -4T200 -4Q193 -4 189 -1T183 12Q172 65 160 123T135 242T109 364T83 486T59
604Q55 622 49 649T37 700Z" />
<glyph unicode="X" horiz-adv-x="600" d="M480 0Q476 0 472 1T465 5T460 11Q435 53 406 103T347 204T290 301L244 338Q209 398 173 458T101 578T29 700Q53 700 76 700T124 700Q129 700 132 698T139 694T144 688Q171 641 198 594T253 501T307 407L354 369Q408 280
463 187T574 0Q551 0 527 0T480 0ZM553 700Q558 700 561 697T564 690T562 681Q546 657 526 625T482 555T435 478T387 400T340 325L283 410H322Q332 443 340 466T359 512T382 559T416 617T466 700Q488 700 510 700T553 700ZM41 0Q36 0 33 3T30 10T32 19Q48 43 68
75T110 145T157 222T204 301T250 377L313 297H277Q266 264 257 240T238 195T214 148T180 87T127 0Q107 0 85 0T41 0Z" />
<glyph unicode="Y" horiz-adv-x="650" d="M374 0Q360 0 346 0T318 0T289 0Q286 0 284 1T280 5T278 11Q278 85 278 161T278 312H374Q374 278 374 242T374 170T374 100Q374 74 374 49T374 0ZM34 700Q57 700 80 700T123 700Q130 700 133 699T140 694T145 684Q171
637 196 592T244 501T289 408T332 310L302 345H360L324 308Q347 364 369 411T413 504T460 596T517 700Q540 700 561 700T602 700Q608 700 611 695T610 682Q588 641 564 598T515 510T465 420T414 332T365 247Q338 247 323 247T299 248T288 251T283 255Q268 280 246
319T198 405T143 504T87 606T34 700Z" />
<glyph unicode="Z" horiz-adv-x="600" d="M546 0H67Q62 0 59 3T56 11V100Q97 155 139 210T225 323T317 445Q338 474 354 495T385 532T412 562T442 591T480 625L449 576V638L469 614Q400 614 348 614T254 614T171 614H142Q124 614 111 618T88 633T74 660T68 700H533Q537
700 539 699T542 695T544 689V600Q525 575 491 532T413 430T316 298Q288 260 268 233T231 187T200 152T168 120T129 82L152 121V59L135 86Q205 86 262 86T368 86T463 86H535Q540 86 543 83T546 75Q546 56 546 38T546 0ZM155 533Q135 533 117 533T79 533Q76 533
74 534T70 538T68 544Q68 561 68 581T68 622T68 663T68 700Q102 700 121 694T148 672T155 632Q155 617 155 600T155 566T155 533Z" />
<glyph unicode="[" horiz-adv-x="450" d="M397 -161H93Q90 -161 88 -161T85 -159T83 -155T82 -150Q82 -48 82 54T82 258T82 462T82 666Q82 689 82 713T82 760Q93 760 102 760T122 760H386Q391 760 394 757T397 749Q397 729 397 711T397 672H178Q178 579 178 486T178
300T178 114T178 -72H386Q391 -72 394 -75T397 -83Q397 -103 397 -122T397 -161Z" />
<glyph unicode="\" horiz-adv-x="600" d="M80 750Q104 750 124 750T167 750Q170 750 172 750T176 748T179 743Q230 616 280 489T381 234T481 -21Q492 -48 503 -75T524 -130Q501 -130 482 -130T438 -130Q434 -130 430 -128T423 -119Q367 26 310 171T195 461T80 750Z" />
<glyph unicode="]" horiz-adv-x="450" d="M53 760H357Q360 760 362 760T365 758T367 754T368 749Q368 648 368 546T368 341T368 137T368 -67Q368 -90 368 -113T368 -161Q358 -161 348 -161T328 -161H64Q59 -161 56 -158T53 -150Q53 -130 53 -112T53 -72H273Q273
20 273 113T273 300T273 486T273 672H64Q59 672 56 675T53 683Q53 702 53 721T53 760Z" />
<glyph unicode="^" horiz-adv-x="600" d="M229 750Q260 750 290 750T351 750Q358 750 362 748T370 737Q396 684 417 640T459 553T502 466T550 368Q529 368 508 368T465 368Q459 368 456 369T449 377Q427 421 410 456T377 523T344 591T303 671L325 660H258L293
681Q268 630 249 591T212 517T177 447T138 367H55Q52 367 51 368T48 370T47 375Q47 378 48 381T54 396Q62 412 80 449T124 536T176 642T229 750Z" />
<glyph unicode="_" horiz-adv-x="600" d="M65 -79H524Q528 -79 530 -80T533 -84T535 -90Q535 -110 535 -128T535 -167H76Q73 -167 71 -166T67 -162T65 -156Q65 -136 65 -118T65 -79Z" />
<glyph unicode="`" horiz-adv-x="350" d="M193 732Q208 685 224 635T257 535T289 437Q269 437 250 437T207 437Q202 437 198 438T191 445Q175 478 158 513T124 584T91 654T62 718Q59 724 61 728T70 732Q96 732 113 732T148 732T193 732Z" />
<glyph unicode="a" horiz-adv-x="600" d="M497 351Q497 323 497 295T497 239T497 182T497 126Q497 113 499 104T507 90Q512 85 519 83T536 81Q538 81 540 81T546 81H561Q561 63 561 46T561 11Q561 5 558 3T550 0Q545 0 535 0T515 0Q492 0 472 7T437 28T414 62T406
111Q406 146 406 183T406 256Q406 272 406 288T406 320T406 352Q406 392 395 414T356 446T283 456Q254 456 227 453T175 444T123 427H108Q108 445 108 463T108 499Q108 502 109 504T111 507Q116 513 141 521T204 535T283 542Q339 542 379 532T446 498T484 439T497
351ZM162 142Q162 108 181 91T240 73Q274 73 304 82T364 112T424 172V85H395Q378 54 354 33T296 1T223 -10Q176 -10 142 7T89 56T70 132V164Q70 197 81 223T112 268T162 296T227 306Q262 306 294 306T359 306T424 306Q433 306 436 296T441 270T442 241Q405 241
374 241T310 241T240 241Q219 241 205 237T180 221Q171 213 167 201T162 172V142Z" />
<glyph unicode="b" horiz-adv-x="600" d="M160 0Q152 0 142 0T122 0T104 0Q101 0 99 1T95 5T93 11Q93 89 93 166T93 320T93 475T93 630Q93 660 93 690T93 750Q104 750 114 750T134 750T154 750T174 750Q178 750 180 749T183 745T185 739Q185 658 185 578T185 417T185
256T185 94Q185 94 183 84T177 61T170 33T163 9T160 0ZM162 82L170 184Q206 125 248 102T333 78Q367 78 391 92T428 136T442 205V333Q442 365 434 388T411 427Q397 441 378 448T333 455Q304 455 276 443T222 406T172 342V450H199Q218 479 242 500T295 532T359 543Q398
543 430 530T485 491T520 429T533 347V191Q533 144 521 107T485 44T429 4T357 -10Q323 -10 294 0T241 30T195 82H162Z" />
<glyph unicode="c" horiz-adv-x="500" d="M305 543Q343 543 371 537T418 523T442 508Q445 505 445 503T446 497Q446 479 446 461T446 424H431Q408 437 378 446T304 456Q258 456 226 440T177 389T160 303V221Q160 185 169 158T198 111Q216 94 243 85T304 76Q333
76 355 79T396 89T431 105H446Q446 86 446 68T446 31Q446 29 446 27T443 23Q436 16 419 8T373 -5T304 -11Q248 -11 204 4T129 48T83 119T67 217V306Q67 382 98 435T182 515T305 543Z" />
<glyph unicode="d" horiz-adv-x="600" d="M243 543Q279 543 307 533T358 502T400 453H430V344Q394 402 353 428T267 455Q234 455 210 441T172 398T158 327V200Q158 168 166 145T189 106Q203 92 223 85T267 78Q296 78 324 88T379 123T430 186V81H400Q382 52 358
32T305 1T241 -10Q203 -10 171 3T115 42T80 103T67 185V342Q67 389 79 426T115 489T171 529T243 543ZM496 750Q500 750 502 749T505 745T507 739Q507 662 507 582T507 423T507 268T507 120Q507 86 507 56T507 0Q497 0 487 0T466 0T446 0T426 0Q423 0 421 1T417
5T415 11Q415 91 415 171T415 330T415 490T415 650Q415 674 415 699T415 750Q425 750 435 750T455 750T475 750T496 750Z" />
<glyph unicode="e" horiz-adv-x="600" d="M303 543Q362 543 411 519T489 445T519 318V245Q519 242 518 240T514 236T508 234H249Q232 234 215 234T182 234H152L139 299H429Q429 304 429 309T429 319Q429 358 421 386T394 433Q378 448 355 455T303 463Q238 463
203 429T168 316V211Q168 189 172 171T183 137T202 110Q222 90 254 81T330 71Q366 71 394 75T446 88T496 111H511Q511 93 511 75T511 40Q511 38 510 36T507 32Q495 20 468 10T405 -5T329 -11Q268 -11 220 3T141 46T93 116T77 211V315Q77 373 94 416T143 487T215
529T303 543Z" />
<glyph unicode="f" horiz-adv-x="400" d="M36 519H338Q341 519 343 518T347 514T349 508Q349 490 349 474T349 438H47Q44 438 42 439T38 443T36 449Q36 468 36 484T36 519ZM215 11Q215 6 212 3T204 0Q183 0 164 0T123 0Q123 25 123 49T123 99Q123 167 123 224T123
334T123 445T123 573Q123 619 135 655T169 715T223 751T297 764Q320 764 339 761T370 753T387 743Q389 742 389 740T390 735Q390 718 390 701T390 665H375Q364 671 353 675T330 681T304 683Q288 683 273 679T244 664Q231 653 223 631T215 568Q215 516 215 460T215
345T215 229T215 116T215 11Z" />
<glyph unicode="g" horiz-adv-x="600" d="M113 85Q113 106 120 123T141 154T177 177V202L230 182Q218 167 212 148T205 108Q205 89 214 81T240 73H388Q443 73 479 54T534 2T552 -75V-104Q552 -135 541 -162T508 -208T453 -239T380 -250H191Q139 -250 105 -235T53
-191T35 -126V-109Q35 -78 47 -54T82 -13T136 9V41L201 -2Q173 -6 157 -19T133 -50T126 -88V-112Q126 -131 134 -146T160 -169T207 -178H380Q402 -178 417 -172T443 -155Q453 -145 457 -132T461 -103V-80Q461 -47 443 -28T380 -8H208Q182 -8 161 3T126 36T113 85ZM342
465L426 469V447Q460 433 475 407T490 347V326Q490 280 465 246T392 193T276 174Q208 174 160 194T86 252T60 341V365Q60 419 85 457T159 517T276 539Q344 539 412 539T548 539Q548 522 548 505T548 471Q548 467 545 464T537 460Q494 460 452 460T366 460T276 460Q217
460 183 435T149 363V341Q149 322 155 307T173 280Q189 265 215 256T276 247Q336 247 368 272T401 343V367Q401 387 396 403T378 435T342 465Z" />
<glyph unicode="h" horiz-adv-x="600" d="M104 0Q101 0 99 1T95 5T93 11Q93 91 93 170T93 330T93 491T93 651Q93 683 93 708T93 750Q109 750 122 750T148 750T174 750Q178 750 180 749T183 745T185 739Q185 647 185 555T185 370T185 185T185 0Q171 0 158 0T132
0T104 0ZM170 348V443H200Q218 465 237 483T277 515T323 536T373 543Q407 543 433 532T477 501T504 454T514 393Q514 345 514 297T514 201T514 103Q514 77 514 52T514 0Q492 0 474 0T433 0Q430 0 428 1T424 5T422 11Q422 72 422 132T422 253T422 375Q422 416 403
435T347 455Q326 455 304 449T260 429T216 396T170 348Z" />
<glyph unicode="i" horiz-adv-x="350" d="M147 11Q147 48 147 92T147 183T147 277T147 367T147 449H133Q125 449 116 449T96 449T77 449T57 449Q53 449 50 452T46 460Q46 477 46 495T46 532Q63 532 81 532T120 532T159 532T195 532T228 532Q231 532 233 531T237
527T239 521Q239 470 239 416T239 306T239 197T239 92Q239 77 239 62T239 31T239 0Q217 0 199 0T158 0Q154 0 151 3T147 11ZM129 774Q143 774 157 774T186 774T215 774T244 774Q249 774 252 771T255 763V665Q241 665 227 665T198 665T169 665T140 665Q135 665 132
668T129 676V774Z" />
<glyph unicode="j" horiz-adv-x="350" d="M246 532Q250 532 252 531T256 527T257 521Q257 465 257 412T257 306T257 200T257 90T257 -28Q257 -72 249 -104T222 -158T177 -189T112 -200Q84 -200 63 -197T27 -187T7 -176Q6 -174 5 -172T4 -168Q4 -148 4 -127T4 -86H19Q33
-93 44 -97T68 -103T96 -105Q113 -105 126 -101T148 -87Q154 -80 158 -71T164 -51T166 -26Q166 43 166 103T166 218T166 329T166 445H157Q147 445 135 445T110 445T84 445T59 445Q55 445 52 448T48 456Q48 475 48 494T48 532Q77 532 103 532T154 532T202 532T246
532ZM148 774Q162 774 176 774T205 774T234 774T263 774Q268 774 271 771T274 763V665Q260 665 246 665T217 665T188 665T159 665Q154 665 151 668T148 676V774Z" />
<glyph unicode="k" horiz-adv-x="600" d="M185 0Q171 0 158 0T132 0T104 0Q101 0 99 1T95 5T93 11Q93 91 93 171T93 331T93 491T93 651Q93 683 93 708T93 750Q109 750 122 750T148 750T174 750Q178 750 180 749T183 745T185 739Q185 647 185 555T185 370T185 185T185
0ZM463 0Q454 0 449 2T438 11Q434 16 423 30T398 62T367 100T337 138Q319 161 308 178T289 211T276 248H241L297 325Q342 271 385 217T473 110T563 0Q546 0 532 0T501 0T463 0ZM168 272H200Q209 292 218 308T237 337T258 364T283 391Q300 408 322 429T370 477T426
532L524 534Q528 534 530 533T533 529T535 523Q535 522 534 519T526 510Q494 478 463 448T402 387T342 329T283 271T226 214T168 158V272Z" />
<glyph unicode="l" horiz-adv-x="350" d="M37 750Q45 750 61 750T97 750T136 750T170 750T192 750Q196 750 198 749T201 745T203 739Q203 693 203 633T203 507T203 375T203 248T203 142Q203 125 205 115T214 98Q222 90 233 88T260 86Q267 86 274 86T286 86H297Q297
69 297 49T297 11Q297 7 296 5T292 2T286 0Q282 0 273 0T252 0T231 0Q201 0 179 7T141 30T119 70T111 127Q111 171 111 226T111 341T111 462T111 575T111 669H103Q99 669 88 669T66 669T48 669Q43 669 40 672T37 680Q37 697 37 714T37 750Z" />
<glyph unicode="m" horiz-adv-x="850" d="M757 0Q745 0 730 0T699 0T672 0Q669 0 667 1T663 5T661 11Q661 51 661 90T661 168T661 243T661 314T661 378Q661 416 646 435T597 454Q573 454 549 441T502 402T458 339L447 452H486Q506 483 527 503T574 533T628 543Q654
543 677 535T718 509T747 466T757 405Q757 376 757 342T757 267T757 185T757 99Q757 74 757 50T757 0ZM473 0Q462 0 446 0T414 0T388 0Q385 0 383 1T379 5T377 11Q377 51 377 91T377 169T377 244T377 315T377 382Q377 406 371 422T351 446T317 454Q294 454 270
441T222 402T175 337L163 452H200Q220 480 242 500T289 532T343 543Q372 543 396 534T437 509T463 467T473 409Q473 378 473 337T473 244T473 131T473 0ZM189 0Q180 0 169 0T147 0T125 0T104 0Q101 0 99 0T96 2T94 6T93 11Q93 81 93 151T93 291T93 432Q93 463 93
488T93 532Q101 532 110 532T130 532T149 532T166 532Q166 532 170 517T178 481T185 446T189 430Q189 371 189 301T189 155T189 0Z" />
<glyph unicode="n" horiz-adv-x="600" d="M514 0Q492 0 474 0T433 0Q430 0 428 1T424 5T422 11Q422 72 422 132T422 253T422 375Q422 416 403 435T347 455Q326 455 304 449T260 429T216 396T170 348V443H200Q223 473 249 495T307 530T373 543Q407 543 433 532T477
501T504 454T514 393Q514 345 514 297T514 201T514 103Q514 77 514 52T514 0ZM185 0Q171 0 158 0T132 0T104 0Q101 0 99 0T96 2T94 6T93 11Q93 64 93 117T93 222T93 327T93 433Q93 465 93 490T93 532Q109 532 122 532T148 532T174 532Q178 532 180 531T183 527T185
521Q185 435 185 348T185 174T185 0Z" />
<glyph unicode="o" horiz-adv-x="600" d="M300 543Q351 543 393 527T465 481T512 412T528 324V213Q528 147 499 97T417 18T300 -11Q249 -11 207 5T135 50T88 120T72 208V319Q72 386 101 436T183 514T300 543ZM305 459Q259 459 228 440T180 389T163 316V215Q163
182 173 156T202 110Q219 93 242 83T295 73Q341 73 372 92T420 144T437 216V317Q437 352 428 379T399 424Q383 441 359 450T305 459Z" />
<glyph unicode="p" horiz-adv-x="600" d="M93 532Q108 532 121 532T147 532T174 532Q178 532 180 531T183 527T185 521Q185 431 185 341T185 161T185 -20T185 -200Q171 -200 158 -200T132 -200T104 -200Q101 -200 99 -199T95 -195T93 -189Q93 -111 93 -34T93 121T93
276T93 431Q93 457 93 482T93 532ZM359 543Q411 543 450 520T511 452T533 347V191Q533 144 521 107T485 44T429 4T357 -10Q324 -10 295 -1T243 26T199 70H171V165Q202 119 244 99T333 78Q367 78 391 92T428 136T442 205V333Q442 365 434 388T411 427Q397 441 378
448T333 455Q304 455 277 443T223 404T172 337V445H199Q218 477 242 498T295 531T359 543Z" />
<glyph unicode="q" horiz-adv-x="600" d="M415 532Q436 532 455 532T496 532Q500 532 502 531T505 527T507 521Q507 446 507 369T507 214T507 63T507 -80Q507 -114 507 -144T507 -200Q486 -200 467 -200T426 -200Q423 -200 421 -199T417 -195T415 -189Q415 -112
415 -34T415 121T415 276T415 432Q415 448 415 464T415 498T415 532ZM429 82H401Q383 51 359 31T305 0T241 -10Q190 -10 151 13T89 80T67 185V342Q67 389 79 426T115 489T171 529T243 543Q276 543 304 533T357 502T401 454H429V350Q393 404 352 429T267 455Q234
455 210 441T172 398T158 327V200Q158 168 166 145T189 106Q203 92 223 85T267 78Q297 78 324 90T378 128T429 192V82Z" />
<glyph unicode="r" horiz-adv-x="450" d="M173 438H206Q226 475 247 498T293 531T348 542Q366 542 378 540T397 533Q402 531 403 528T405 518Q405 509 405 499T405 480T405 460T405 440H390Q379 443 367 445T338 447Q306 447 279 436T227 399T173 331V438ZM189
0Q175 0 161 0T133 0T104 0Q101 0 99 0T96 2T94 6T93 11Q93 32 93 68T93 149T93 244T93 342T93 433Q93 465 93 490T93 532Q109 532 123 532T151 532T178 532Q182 532 184 531T187 527T189 521Q189 495 189 451T189 351T189 234T189 112T189 0Z" />
<glyph unicode="s" horiz-adv-x="550" d="M267 79Q339 79 370 100T401 154Q401 172 393 185T367 208T317 224L218 244Q169 254 138 272T92 318T77 381Q77 416 91 445T135 495T207 529T307 541Q343 541 371 538T420 529T454 517Q460 515 462 513T465 508T466 499Q466
484 466 465T466 428H451Q427 437 404 442T354 450T295 453Q250 453 222 444T181 419T168 384Q168 367 175 356T200 336T253 320L352 300Q396 291 427 272T474 224T491 154Q491 105 465 68T388 11T268 -9Q232 -9 202 -6T146 4T101 18T67 36Q63 39 62 41T61 48Q61
65 61 87T61 128H76Q97 114 118 105T162 90T210 82T267 79Z" />
<glyph unicode="t" horiz-adv-x="500" d="M46 532H423Q428 532 431 529T434 521Q434 508 434 496T434 472T434 446H57Q55 446 53 447T50 449T47 453T46 457Q46 471 46 483T46 507T46 532ZM434 87Q434 68 434 49T434 11Q434 6 432 3T423 0Q414 0 405 0T386 0T367
0T348 0Q299 0 262 11T199 47T160 110T147 202Q147 251 147 300T147 398T147 496T147 595Q147 622 147 648T147 700Q168 700 188 700T228 700Q231 700 233 699T237 695T239 689Q239 629 239 570T239 450T239 330T239 210Q239 174 246 150T268 111Q282 98 302 93T352
87Q364 87 375 87T398 87T421 87H434Z" />
<glyph unicode="u" horiz-adv-x="600" d="M173 532Q177 532 179 531T182 527T184 521Q184 476 184 430T184 337T184 245T184 157Q184 119 203 100T256 80Q280 80 302 86T345 104T388 136T432 183V89H403Q380 59 355 36T300 1T233 -11Q200 -11 174 0T130 31T103
77T93 136Q93 181 93 225T93 315T93 405Q93 437 93 468T93 532Q113 532 133 532T173 532ZM498 532Q502 532 504 531T507 527T509 521Q509 451 509 381T509 240T509 99Q509 78 509 60T509 26T509 0Q495 0 482 0T455 0T428 0Q425 0 423 1T419 5T417 11Q417 98 417
185T417 359T417 532Q432 532 445 532T471 532T498 532Z" />
<glyph unicode="v" horiz-adv-x="600" d="M136 532Q139 532 141 531T144 528T147 521Q171 452 195 381T243 233T293 66H308Q324 119 338 169T368 265T398 357T427 445T456 532Q477 532 498 532T540 532Q544 532 546 530T550 525T549 517Q527 453 505 389T460 259T415
130T369 0Q338 0 307 0T249 0Q243 0 238 2T230 10T222 28Q205 75 188 124T153 223T118 325T82 428T46 532Q69 532 91 532T136 532Z" />
<glyph unicode="w" horiz-adv-x="800" d="M351 532H439Q442 532 444 531T448 528T451 521Q465 467 479 412T508 301T534 190T556 81H574Q583 143 593 201T615 314T638 424T662 532Q676 532 690 532T718 532T746 532Q750 532 752 531T756 527T756 518Q742 464 727
400T696 268T663 132T630 0Q617 0 603 0T574 0T545 0T517 0Q511 0 508 4T501 21Q492 55 483 89T465 158T446 232T427 314T409 409H392Q385 367 378 331T363 263T348 200T332 138T314 72T295 0Q277 0 258 0T219 0T182 0Q176 0 173 4T166 23Q158 59 147 105T122 205T95
315T67 426T41 532Q54 532 68 532T97 532T126 532Q130 532 132 531T136 527T139 520Q148 478 160 425T184 313T209 195T229 81H247Q256 136 268 193T294 309T322 423T351 532Z" />
<glyph unicode="x" horiz-adv-x="600" d="M66 532Q90 532 114 532T163 532Q170 532 174 529T183 520Q215 467 247 414T311 307L345 288Q393 216 441 144T537 0Q525 0 514 0T491 0T469 0T449 0Q437 0 432 3T419 17Q404 39 382 76T335 154T287 233L254 252Q207 322
161 391T66 532ZM256 295L324 210H284Q266 175 247 140T207 70T166 0L79 -1Q74 -1 71 2T68 10Q68 13 70 17T76 27Q121 94 166 161T256 295ZM514 532Q519 532 522 530T526 522Q526 520 525 518T522 511Q478 445 433 378T343 244L279 325H316Q333 360 350 394T387
463T426 532H514Z" />
<glyph unicode="y" horiz-adv-x="600" d="M540 532Q545 532 550 528T552 516Q528 439 504 365T457 217T412 73T370 -67Q356 -114 335 -143T282 -186T206 -200Q195 -200 180 -200T152 -200T128 -200T115 -200Q110 -200 107 -198T104 -189V-118H119Q140 -118 159
-118T199 -118Q233 -118 254 -103T286 -51Q293 -28 307 18T339 127T379 258T421 398T461 532Q470 532 479 532T499 532T519 532T540 532ZM131 532Q140 532 144 530T150 520Q170 461 189 407T226 303T260 211T288 134T307 76H350L332 17H265Q256 17 250 19T239 30T226
58Q219 76 205 114T171 202T129 309T86 423T45 532Q55 532 65 532T87 532T109 532T131 532Z" />
<glyph unicode="z" horiz-adv-x="550" d="M73 532H466Q470 532 472 531T475 527T477 521V434Q450 402 425 372T375 312T327 256T282 203T239 153Q222 136 209 124T181 101V86Q202 86 224 86T268 86H466Q471 86 474 83T477 75Q477 57 477 38T477 0H84Q81 0 79 1T75
5T73 11V104Q116 153 155 198T230 284T299 363Q317 382 333 398T368 430V445Q340 445 313 445T258 445H84Q81 445 79 446T75 450T73 456Q73 475 73 494T73 532Z" />
<glyph unicode="{" horiz-adv-x="550" d="M367 152Q367 122 358 100T335 61T312 28T300 -4Q299 -13 299 -21T298 -37Q302 -57 312 -65T344 -73Q379 -73 413 -73T483 -73H496Q496 -92 496 -111T496 -150Q496 -155 493 -158T485 -161H314Q274 -161 251 -145T217
-105T207 -64V-15Q207 15 217 36T241 74T265 109T275 153Q275 184 253 207T188 243T86 256H65Q60 256 57 259T54 267Q54 286 54 305T54 344H86Q145 344 187 356T252 391T275 445Q275 471 265 489T241 525T217 563T207 614V663Q207 682 217 704T250 743T314 760H485Q490
760 493 757T496 749Q496 729 496 710T496 672H483Q448 672 414 672T344 672Q323 672 313 664T298 636Q298 629 298 622T299 606Q300 589 310 573T334 540T357 500T367 446Q367 396 338 361T252 306V294Q312 275 339 239T367 152Z" />
<glyph unicode="|" horiz-adv-x="300" d="M102 760Q124 760 145 760T187 760Q192 760 195 757T198 749Q198 658 198 567T198 385T198 203T198 21T198 -161Q177 -161 156 -161T113 -161Q109 -161 106 -158T102 -150Q102 -49 102 52T102 254T102 456T102 658Q102
684 102 709T102 760Z" />
<glyph unicode="}" horiz-adv-x="550" d="M183 447Q183 477 192 499T215 538T238 571T250 603Q251 612 251 620T252 636Q248 656 238 664T206 672Q171 672 137 672T67 672H54Q54 691 54 710T54 749Q54 754 57 757T65 760H236Q276 760 299 744T333 705T343 663V614Q343
584 333 563T309 525T285 490T275 446Q275 415 297 392T362 356T464 343H485Q490 343 493 340T496 332Q496 313 496 294T496 255H464Q405 255 363 243T298 209T275 154Q275 129 285 110T309 74T333 36T343 -15V-64Q343 -82 333 -105T300 -144T236 -161H65Q60 -161
57 -158T54 -150Q54 -130 54 -111T54 -73H67Q102 -73 136 -73T206 -73Q227 -73 237 -65T252 -37Q252 -30 252 -23T251 -7Q250 10 240 26T216 59T193 99T183 153Q183 203 212 238T298 293V305Q238 324 211 361T183 447Z" />
<glyph unicode="~" horiz-adv-x="600" d="M404 161Q453 161 485 184T532 252T548 366V416Q548 425 545 428T533 432Q518 432 502 432T469 432V420Q469 409 469 400T469 381Q469 311 455 286T409 261Q386 261 372 274T347 307T325 349T299 392T259 426T196 439Q147
439 115 416T68 348T52 234V184Q52 175 55 172T67 168Q83 168 99 168T131 168V180Q131 190 131 200T131 219Q131 289 146 314T191 339Q214 339 228 326T253 293T275 251T302 208T342 174T404 161Z" />
<glyph unicode="&#xa1;" horiz-adv-x="350" d="M139 271H200Q203 271 205 271T208 268Q210 267 211 261T215 233T221 164T233 30V-58Q233 -86 233 -112T233 -168Q211 -168 185 -168T128 -168Q125 -168 123 -167T119 -163T117 -157V30Q121 70 124 110T131 190T139
271ZM108 539Q130 539 150 539T189 539T231 539Q235 539 237 538T240 534T242 528V402Q220 402 201 402T161 402T119 402Q116 402 114 403T110 407T108 413V539Z" />
<glyph unicode="&#xa2;" horiz-adv-x="600" d="M341 624Q385 624 418 617T473 599T502 581Q506 579 506 577T507 570Q507 563 507 550T507 521T507 493H492Q457 512 422 523T339 534Q288 534 252 518T198 467T179 380V311Q179 273 188 244T219 197Q239 178 268
169T337 160Q369 160 395 164T444 178T492 199H507Q507 187 507 172T507 144T507 121Q507 119 507 117T504 113Q494 103 471 93T413 77T336 70Q276 70 230 85T151 131T102 204T85 304V385Q85 461 118 514T208 596T341 624ZM369 383L325 395Q321 395 319 396T315
401T314 407Q314 449 314 492T314 577T314 656Q314 679 314 705T314 755Q332 755 344 755T369 755T399 755Q402 755 404 754T408 750T409 742Q406 722 403 691T395 621T387 541T378 460T369 383ZM312 305L356 294Q360 293 362 292T365 288T367 281Q367 239 367
196T367 111T367 27Q367 5 367 -22T367 -71Q349 -71 337 -71T312 -71T281 -71Q278 -71 276 -70T272 -65T271 -58Q276 -16 281 28T291 119T301 213T312 305Z" />
<glyph unicode="&#xa3;" horiz-adv-x="600" d="M66 387H439Q443 387 445 386T448 382T450 376Q450 370 450 358T450 334T450 316H77Q74 316 72 317T68 321T66 327Q66 333 66 344T66 368T66 387ZM367 633Q336 633 313 627T275 606Q261 593 254 574T247 529Q247
489 247 444T247 354T247 271T247 208Q247 182 243 160T225 118T183 79L205 122V57L175 81Q199 81 231 81T298 81T362 81T411 81Q427 81 449 81T493 81T529 81H544Q544 64 544 47T544 11Q544 6 541 3T533 0Q522 0 497 0T440 0T372 0T303 0T244 0T204 0H189Q173
0 150 0T101 0T57 0Q52 0 49 3T46 11Q46 20 46 28T46 46T46 64T46 81H64Q91 81 111 92T143 124T155 177Q155 204 155 245T155 335T155 433T155 524V542Q155 592 179 632T251 696T366 720Q424 720 463 706T518 675Q520 674 520 672T521 667Q521 655 521 642T521
616T521 588H506Q471 611 441 622T367 633Z" />
<glyph unicode="&#xa4;" horiz-adv-x="600" d="M232 422Q222 411 209 398T183 373Q181 371 179 371T175 370T171 373Q151 393 128 416T84 460Q95 471 107 483T133 509Q135 511 136 511T139 512Q142 512 145 509Q166 488 189 465T232 422ZM366 422Q386 442 409
465T453 509Q456 512 459 512Q461 512 462 512T465 509Q478 496 490 484T514 460Q494 440 471 417T427 373Q425 371 423 371T419 370T415 373Q411 376 405 383T390 397T376 412T366 422ZM366 178Q377 189 390 202T415 226Q418 229 421 229T427 226Q447 206 470
183T514 139Q503 128 491 116T465 90Q464 89 463 88T459 87Q456 87 453 90Q432 111 409 134T366 178ZM232 178Q212 157 189 134T145 90Q142 87 139 87Q138 87 137 88T133 90Q120 103 108 115T84 139Q104 159 127 182T171 226Q173 228 175 228T179 229T183 226Q187
223 193 217T208 202T222 188T232 178ZM129 314Q129 361 150 396T209 451T300 471Q352 471 390 452T450 397T471 314V286Q471 240 450 205T391 150T300 130Q248 130 210 150T150 205T129 286V314ZM207 288Q207 266 212 251T229 225Q240 214 258 209T300 203Q346
203 369 225T393 288V315Q393 335 389 350T373 375Q362 387 344 393T300 399Q254 399 231 378T207 315V288Z" />
<glyph unicode="&#xa5;" horiz-adv-x="600" d="M37 457H218V384H48Q45 384 43 385T39 389T37 395Q37 402 37 414T37 439T37 457ZM382 457H552Q557 457 560 454T563 446Q563 439 563 427T563 403T563 384H382V457ZM563 143H48Q43 143 40 146T37 154Q37 160 37 172T37
197T37 217H552Q556 217 558 216T561 212T563 206Q563 199 563 187T563 162T563 143ZM348 273Q348 241 348 205T348 140T348 100Q348 80 348 54T348 0Q342 0 331 0T306 0T281 0T263 0Q260 0 258 1T254 5T252 11Q252 34 252 64T252 130T252 202T252 275Q236 305
217 341T176 418T130 505T82 600T30 700Q46 700 61 700T91 700T122 700Q127 700 130 699T135 696T138 690Q161 642 182 599T223 512T264 418T311 302L273 343H331L295 302Q320 368 341 420T383 516T424 605T468 700Q491 700 513 700T556 700Q562 700 564 696T564
686Q538 636 511 584T457 480T402 377T348 273Z" />
<glyph unicode="&#xa6;" horiz-adv-x="350" d="M127 760Q148 760 169 760T212 760Q214 760 216 760T220 757Q222 756 222 754T223 749V369Q201 369 180 369T138 369Q134 369 131 372T127 380V661Q127 686 127 710T127 760ZM127 231Q148 231 169 231T212 231Q217
231 220 228T223 220V-160Q201 -160 180 -160T138 -160Q135 -160 133 -159T129 -155T127 -149V231Z" />
<glyph unicode="&#xa7;" horiz-adv-x="600" d="M318 718Q353 718 383 714T439 703T483 687T511 667Q514 665 516 663T518 658T519 650Q519 616 519 583T519 517Q499 517 480 517T440 517Q435 517 432 520T429 528Q429 543 429 557T429 585T429 613T429 642L458
600Q403 633 319 633Q284 633 257 626T211 606T181 574T170 530V505Q170 480 181 463T217 433T285 407L381 379Q440 362 473 340T520 287T534 217V191Q534 168 526 149T502 114T467 92V70L391 75Q411 93 422 107T439 137T444 171V193Q444 220 437 238T408 271T345
297L249 326Q185 346 148 371T96 426T80 491V536Q80 575 98 608T147 665T222 704T318 718ZM295 -162Q368 -162 406 -137T444 -69V-55Q444 -31 435 -16T404 11T341 34L245 63Q187 81 151 104T97 156T80 219V243Q80 284 100 313T151 353V378L231 368Q206 353 193
339T175 308T170 265V246Q170 221 179 203T212 170T279 143L375 115Q435 98 469 75T519 21T534 -53V-71Q534 -111 518 -143T470 -200T393 -237T291 -250Q256 -250 224 -246T163 -233T111 -212T73 -185Q72 -183 71 -181T70 -177Q70 -155 70 -134T70 -91H85Q131 -129
179 -145T295 -162Z" />
<glyph unicode="&#xa8;" horiz-adv-x="600" d="M140 761Q165 761 190 761T241 761Q245 761 247 760T250 756T252 750V649Q227 649 202 649T151 649Q148 649 146 650T142 654T140 660V761ZM348 761Q373 761 398 761T449 761Q453 761 455 760T458 756T460 750V649Q435
649 410 649T359 649Q356 649 354 650T350 654T348 660V761Z" />
<glyph unicode="&#xa9;" horiz-adv-x="600" d="M300 715Q389 715 451 682T547 586T581 429V266Q581 176 547 113T449 18T300 -15Q212 -15 149 18T53 114T19 271V434Q19 525 53 587T151 682T300 715ZM300 662Q229 662 179 637T101 563T74 446V255Q74 202 90 161T137
92Q166 66 207 52T300 38Q371 38 421 63T499 138T526 254V445Q526 496 511 536T467 604Q438 632 396 647T300 662ZM308 566Q344 566 370 554T415 522Q418 519 419 517T420 511Q420 490 420 468T420 425Q407 425 395 425T369 425Q363 425 361 428T358 436Q358 453
358 472T358 522L376 475Q361 493 346 499T308 505Q284 505 268 497T244 472T236 430V275Q236 253 240 238T254 213Q263 204 276 200T309 196Q343 196 365 207T409 245H421Q421 230 421 216T421 188Q421 181 420 179T416 172Q402 154 372 144T306 134Q260 134 230
150T185 198T170 273V429Q170 495 206 530T308 566Z" />
<glyph unicode="&#xaa;" horiz-adv-x="600" d="M244 295Q212 295 185 306T139 338T109 390T98 459V590Q98 644 116 681T168 738T246 759Q289 759 321 741T374 688H400L401 601Q370 647 338 666T268 686Q240 686 220 674T188 637T177 578V471Q177 445 184 426T203
393Q215 381 231 375T268 369Q292 369 314 379T358 410T400 463L404 376H375Q356 337 322 316T244 295ZM521 371Q521 357 521 343T521 314Q521 309 519 307T511 304Q505 304 500 304T489 304Q456 304 434 315T401 347T389 396Q389 438 389 480T389 563T389 646Q389
664 389 681T389 715T389 750Q406 750 423 750T457 750Q462 750 464 748T467 740Q467 684 467 629T467 518T467 406Q467 389 474 380T497 371Q500 371 503 371T507 371H521Z" />
<glyph unicode="&#xab;" horiz-adv-x="600" d="M319 93V78Q302 78 284 78T248 78Q238 78 234 80T222 90Q218 94 202 111T164 151T120 197T80 239T57 263Q50 271 49 275T47 285Q47 295 47 305T47 325Q70 350 96 377T148 432T193 480T224 512Q231 519 236 520T250
522Q268 522 285 522T319 522V507Q277 462 243 426T181 360T124 299Q153 269 180 240T241 176T319 93ZM549 93V78Q532 78 514 78T478 78Q468 78 464 80T452 90Q448 94 432 111T394 151T350 197T310 239T287 263Q280 271 279 275T277 285Q277 295 277 305T277 325Q300
350 326 377T378 432T423 480T454 512Q461 519 466 520T480 522Q498 522 515 522T549 522V507Q507 462 473 426T411 360T354 299Q383 269 410 240T471 176T549 93Z" />
<glyph unicode="&#xac;" horiz-adv-x="600" d="M69 431H520Q524 431 526 430T529 426T531 420Q531 350 531 280T531 140Q511 140 493 140T456 140Q453 140 451 141T447 146T445 152Q445 208 445 265T445 380L477 345H80Q77 345 75 346T71 350T69 356Q69 375 69
393T69 431Z" />
<glyph unicode="&#xad;" horiz-adv-x="600" d="M76 344H363Q367 344 369 343T372 339T374 333Q374 313 374 295T374 255H87Q84 255 82 255T79 257T77 261T76 266Q76 287 76 305T76 344Z" />
<glyph unicode="&#xae;" horiz-adv-x="600" d="M300 760Q361 760 407 746T486 703T534 634T551 539V411Q551 360 535 321T486 256T407 215T300 201Q225 201 168 224T80 295T49 416V545Q49 597 66 637T115 704T194 745T300 760ZM300 707Q252 707 216 697T154 666T117
618T104 552V405Q104 369 117 341T156 293Q181 274 217 264T300 254Q349 254 385 264T446 294T483 340T496 403V551Q496 586 485 614T451 662Q427 684 389 695T300 707ZM218 608H243Q248 604 250 599T252 586Q252 541 252 496T252 406Q252 386 252 367T252 327Q240
327 228 327T204 327Q199 327 196 330T193 338Q193 383 193 428T193 518T193 608H218ZM323 635Q356 635 378 625T411 597T423 551V519Q423 500 417 485T400 457T372 439T334 432Q313 432 291 432T249 432Q245 432 240 433T230 436V456V485H328Q345 485 355 494T365
519V547Q365 556 363 562T356 573Q348 581 328 581Q304 581 280 581T231 581T182 581Q177 581 174 584T171 592Q171 603 171 614T171 635Q209 635 247 635T323 635ZM353 471Q360 451 368 432T383 392Q386 385 389 383T402 380Q410 380 411 380T421 380H424Q424
369 424 357T424 335Q424 329 422 327T413 324H403Q376 324 361 332T335 367Q327 388 319 408T303 449L353 471Z" />
<glyph unicode="&#xaf;" horiz-adv-x="600" d="M124 754H465Q470 754 473 751T476 743Q476 731 476 720T476 697T476 673H135Q132 673 130 674T126 678T124 684Q124 697 124 708T124 730T124 754Z" />
<glyph unicode="&#xb0;" horiz-adv-x="600" d="M300 710Q352 710 389 692T448 642T469 564V515Q469 471 448 438T390 387T300 369Q248 369 211 387T152 438T131 515V564Q131 609 152 641T210 692T300 710ZM300 437Q346 437 371 459T397 519V560Q397 596 376 616Q364
629 345 635T300 642Q254 642 229 621T203 560V519Q203 484 224 462Q236 450 255 444T300 437Z" />
<glyph unicode="&#xb1;" horiz-adv-x="600" d="M254 587Q277 587 296 587T335 587Q340 587 343 584T346 575Q346 531 346 486T346 397T346 309T346 219Q325 219 306 219T265 219Q260 219 257 222T254 230Q254 272 254 316T254 403T254 483Q254 510 254 536T254
587ZM69 445H520Q524 445 526 444T529 440T531 434Q531 415 531 398T531 360H81Q75 360 72 363T69 371Q69 391 69 408T69 445ZM69 156H520Q524 156 526 155T529 151T531 145Q531 125 531 108T531 71H80Q77 71 75 72T71 76T69 82Q69 102 69 119T69 156Z" />
<glyph unicode="&#xb2;" horiz-adv-x="400" d="M335 365Q332 365 313 365T265 365T204 365T144 365T96 365T73 365Q70 365 68 366T64 370T62 376V426Q62 463 71 493T104 548T173 590Q211 604 230 615T258 640T266 672Q266 685 261 695T248 711Q241 716 228 720T189
724Q152 724 125 716T78 695H66Q66 699 66 707T66 726T66 744T66 757Q66 761 67 764T75 772Q88 780 120 788T194 796Q243 796 274 782T321 742T337 679V673Q337 643 326 619T288 575T216 539Q177 526 159 510T134 470T123 410L128 473V401L105 424Q132 432 159
435T225 438H324Q329 438 332 435T335 427Q335 423 335 415T335 396T335 378T335 365Z" />
<glyph unicode="&#xb3;" horiz-adv-x="400" d="M335 683Q335 647 311 617T234 578L265 604V555L234 579Q274 573 296 558T329 522T339 475V469Q339 433 323 407T275 368T197 355Q145 355 113 364T67 383Q64 386 63 389T61 398Q61 402 61 410T61 427T61 445T61
457H73Q98 440 126 433T187 426Q231 426 251 441T271 484Q271 503 259 516T216 538T133 546Q128 546 125 549T121 558Q121 563 121 572T121 592T121 607Q175 607 206 613T252 634T266 671Q266 698 248 711T185 724Q152 724 124 717T77 695H65Q65 699 65 707T65
726T65 744T65 756Q65 760 66 764T73 771Q86 780 115 788T187 796Q244 796 276 782T321 744T335 689V683Z" />
<glyph unicode="&#xb4;" horiz-adv-x="600" d="M374 823Q404 823 425 823T474 823Q482 823 484 817T481 806Q457 777 437 752T395 702T345 643Q343 640 339 638T328 635Q309 635 293 635T258 635Q277 665 296 696T335 759T374 823Z" />
<glyph unicode="&#xb5;" horiz-adv-x="600" d="M177 532Q181 532 183 531T186 527T188 521Q188 462 188 403T188 286T188 168Q188 123 206 103T256 83Q278 83 299 89T342 110T388 148T440 204L439 84H400Q359 34 322 12T239 -11Q217 -11 198 -6T164 10L155 3Q167
-29 174 -51T186 -87T191 -111T192 -132Q192 -154 192 -169T192 -200Q170 -200 148 -200T104 -200Q101 -200 99 -199T95 -195T93 -189Q93 -112 93 -36T93 117T93 271T93 424Q93 443 93 460T93 496T93 532Q114 532 135 532T177 532ZM411 532Q425 532 439 532T466
532T494 532Q498 532 500 531T503 527T505 521Q505 454 505 388T505 254T505 121Q505 110 506 102T513 89Q518 84 525 83T542 81Q544 81 546 81T550 81T554 81H569Q569 63 569 46T569 11Q569 5 566 3T558 0Q555 0 550 0T540 0T530 0Q491 0 465 13T425 52T411 111Q411
163 411 215T411 321T411 426T411 532Z" />
<glyph unicode="&#xb6;" horiz-adv-x="600" d="M297 616Q256 616 229 602T188 560T175 488V387Q175 347 185 324T217 291T276 281H324V207Q306 207 289 207T258 207H235Q174 207 134 232T74 301T54 401V486Q54 551 78 599T149 674T268 700H559Q561 700 563 700T567
697Q569 696 569 694T570 689Q570 667 570 654T570 632T570 616H559Q527 616 483 616T391 616T297 616ZM303 653H337Q341 653 343 652T346 648T348 642Q348 558 348 461T348 261T348 53T348 -150Q330 -150 314 -150T279 -150Q274 -150 271 -147T268 -139Q268 -73
268 -7T268 125T268 257T268 389T268 522T268 653H303ZM473 653H507Q511 653 513 652T516 648T518 642Q518 557 518 472T518 302T518 131T518 -40Q518 -70 518 -98T518 -150Q501 -150 485 -150T450 -150Q445 -150 442 -147T439 -139Q439 -60 439 19T439 178T439
336T439 495T439 653H473Z" />
<glyph unicode="&#xb7;" horiz-adv-x="350" d="M242 245Q220 245 201 245T161 245T119 245Q116 245 114 246T110 250T108 256V382Q130 382 150 382T189 382T231 382Q235 382 237 381T240 377T242 371V245Z" />
<glyph unicode="&#xb8;" horiz-adv-x="600" d="M330 36Q328 28 326 20T323 3T319 -12T315 -27L313 -37Q356 -39 380 -61T405 -125Q405 -175 371 -203T272 -232Q241 -232 223 -228T196 -217T187 -203Q187 -191 187 -181T187 -162T187 -146H199Q211 -153 225 -157T264
-162Q290 -162 307 -151T324 -117Q324 -96 310 -86T260 -75Q255 -75 252 -72T250 -62Q254 -50 257 -40T263 -19T269 2T276 22Q278 28 282 31T297 35T330 36Z" />
<glyph unicode="&#xb9;" horiz-adv-x="400" d="M61 438H328Q333 438 336 435T339 427Q339 423 339 415T339 396T339 378T339 365H72Q67 365 64 368T61 376Q61 382 61 388T61 402T61 419T61 438ZM243 397H166L172 412Q172 418 172 423T172 434T172 442Q172 445
172 469T172 529T172 606T172 681T172 737L190 707H142L169 733Q161 708 151 688T129 650T100 613Q86 599 81 595T71 591Q68 591 67 592T65 597V686Q76 698 89 712T113 737Q126 749 138 762T162 786Q168 786 178 786T198 786T218 786T232 786Q237 786 240 783T243
775Q243 773 243 745T243 675T243 586T243 497T243 427T243 397Z" />
<glyph unicode="&#xba;" horiz-adv-x="600" d="M301 761Q360 761 404 737T474 670T499 569V484Q499 427 473 383T401 315T299 290Q239 290 195 314T126 382T101 483V568Q101 625 127 669T199 737T301 761ZM306 689Q265 689 236 674T193 631T178 569V483Q178 454
186 432T212 393Q226 379 247 371T294 363Q336 363 364 379T407 422T422 482V568Q422 595 416 616T396 652Q381 670 359 679T306 689Z" />
<glyph unicode="&#xbb;" horiz-adv-x="600" d="M282 507V522Q300 522 317 522T353 522Q363 522 367 520T379 510Q383 506 399 489T437 449T481 403T521 361T544 337Q551 330 552 326T554 315Q554 305 554 295T554 275Q531 250 505 223T453 168T408 120T377 88Q370
81 365 80T351 78Q333 78 316 78T282 78V93Q325 139 358 174T420 240T477 301Q449 331 421 360T360 424T282 507ZM52 507V522Q70 522 87 522T123 522Q133 522 137 520T149 510Q153 506 169 489T207 449T251 403T291 361T314 337Q321 330 322 326T324 315Q324 305
324 295T324 275Q301 250 275 223T223 168T178 120T147 88Q140 81 135 80T121 78Q103 78 86 78T52 78V93Q95 139 128 174T190 240T247 301Q219 331 191 360T130 424T52 507Z" />
<glyph unicode="&#xbc;" horiz-adv-x="800" d="M430 409Q440 426 453 449T480 501T510 560T539 618T566 670T589 710Q592 710 603 710T629 710T654 710T669 710Q675 710 677 707T675 697Q666 681 654 659T627 611T597 557T566 503T539 454T517 416Q514 412 512
411T506 409Q502 409 492 409T468 409T445 409T430 409ZM370 292Q360 276 347 252T320 200T290 141T261 83T234 31T211 -9Q208 -9 197 -9T171 -9T146 -9T131 -9Q125 -9 123 -6T125 4Q134 20 146 42T173 90T203 144T234 198T261 247T283 285Q286 290 288 291T294
292Q298 292 308 292T332 292T355 292T370 292ZM704 -86Q700 -86 692 -86T675 -86T658 -86T646 -86Q641 -86 638 -84T635 -75V92Q635 94 637 105T641 132T646 160T650 179H693Q699 179 701 176T704 168V-35Q704 -42 704 -60T704 -86ZM756 1H456Q451 1 448 4T445
12V57Q445 57 452 76T473 125T500 188T528 253T550 304T560 327Q563 332 566 333T574 335Q578 335 586 335T605 335T623 335T636 335V323Q635 320 626 300T603 251T576 189T549 126T526 76T514 50L526 98V44L511 59Q527 64 542 67T576 72T620 74H745Q750 74 753
71T756 63Q756 59 756 51T756 32T756 14T756 1ZM61 438H328Q333 438 336 435T339 427Q339 423 339 415T339 396T339 378T339 365H72Q67 365 64 368T61 376Q61 382 61 388T61 402T61 419T61 438ZM243 397H166L172 412Q172 418 172 423T172 434T172 443Q172 445 172
469T172 529T172 606T172 681T172 737L190 707H142L169 733Q161 708 151 688T129 650T100 613Q86 599 81 595T71 591Q68 591 67 592T65 597V686Q76 698 89 712T113 737Q126 749 138 762T162 786Q168 786 178 786T198 786T218 786T232 786Q237 786 240 783T243 775Q243
773 243 745T243 675T243 586T243 497T243 427T243 397Z" />
<glyph unicode="&#xbd;" horiz-adv-x="800" d="M430 409Q440 426 453 449T480 501T510 560T539 618T566 670T589 710Q592 710 603 710T629 710T654 710T669 710Q675 710 677 707T675 697Q666 681 654 659T627 611T597 557T566 503T539 454T517 416Q514 412 512
411T506 409Q502 409 492 409T468 409T445 409T430 409ZM370 292Q360 276 347 252T320 200T290 141T261 83T234 31T211 -9Q208 -9 197 -9T171 -9T146 -9T131 -9Q125 -9 123 -6T125 4Q134 20 146 42T173 90T203 144T234 198T261 247T283 285Q286 290 288 291T294
292Q298 292 308 292T332 292T355 292T370 292ZM735 -86Q732 -86 713 -86T665 -86T604 -86T544 -86T496 -86T473 -86Q470 -86 468 -85T464 -81T462 -75V-25Q462 12 471 42T504 97T573 139Q611 153 630 164T658 189T666 221Q666 234 661 244T648 260Q641 265 628
268T589 272Q552 272 525 264T478 243H466Q466 247 466 256T466 275T466 293T466 306Q466 310 467 313T475 321Q488 329 520 337T594 345Q643 345 674 331T721 291T737 228V222Q737 192 726 168T688 124T616 88Q577 75 559 59T534 19T523 -41L528 22V-51L505 -27Q532
-19 559 -17T625 -14H724Q729 -14 732 -17T735 -25Q735 -29 735 -37T735 -55T735 -73T735 -86ZM61 438H328Q333 438 336 435T339 427Q339 423 339 415T339 396T339 378T339 365H72Q67 365 64 368T61 376Q61 382 61 388T61 402T61 419T61 438ZM243 397H166L172 412Q172
418 172 423T172 434T172 443Q172 445 172 469T172 529T172 606T172 681T172 737L190 707H142L169 733Q161 708 151 688T129 650T100 613Q86 599 81 595T71 591Q68 591 67 592T65 597V686Q76 698 89 712T113 737Q126 749 138 762T162 786Q168 786 178 786T198 786T218
786T232 786Q237 786 240 783T243 775Q243 773 243 745T243 675T243 586T243 497T243 427T243 397Z" />
<glyph unicode="&#xbe;" horiz-adv-x="800" d="M430 409Q440 426 453 449T480 501T510 560T539 618T566 670T589 710Q592 710 603 710T629 710T654 710T669 710Q675 710 677 707T675 697Q666 681 654 659T627 611T597 557T566 503T539 454T517 416Q514 412 512
411T506 409Q502 409 492 409T468 409T445 409T430 409ZM370 292Q360 276 347 252T320 200T290 141T261 83T234 31T211 -9Q208 -9 197 -9T171 -9T146 -9T131 -9Q125 -9 123 -6T125 4Q134 20 146 42T173 90T203 144T234 198T261 247T283 285Q286 290 288 291T294
292Q298 292 308 292T332 292T355 292T370 292ZM704 -86Q700 -86 692 -86T675 -86T658 -86T646 -86Q641 -86 638 -84T635 -75V92Q635 94 637 105T641 132T646 160T650 179H693Q699 179 701 176T704 168V-35Q704 -42 704 -60T704 -86ZM756 1H456Q451 1 448 4T445
12V57Q445 57 452 76T473 125T500 188T528 253T550 304T560 327Q563 332 566 333T574 335Q578 335 586 335T605 335T623 335T636 335V323Q635 320 626 300T603 251T576 189T549 126T526 76T514 50L526 98V44L511 59Q527 64 542 67T576 72T620 74H745Q750 74 753
71T756 63Q756 59 756 51T756 32T756 14T756 1ZM335 683Q335 647 311 617T234 578L265 604V555L234 579Q274 573 296 558T329 522T339 475V469Q339 433 323 407T275 368T197 355Q145 355 113 364T67 383Q64 386 63 389T61 398Q61 402 61 410T61 427T61 445T61 457H73Q98
440 126 433T187 426Q231 426 251 441T271 484Q271 503 259 516T216 538T133 546Q128 546 125 549T121 558Q121 563 121 572T121 592T121 607Q175 607 206 613T252 634T266 671Q266 698 248 711T185 724Q152 724 124 717T77 695H65Q65 699 65 707T65 726T65 744T65
756Q65 760 66 764T73 771Q86 780 115 788T187 796Q244 796 276 782T321 744T335 689V683Z" />
<glyph unicode="&#xbf;" horiz-adv-x="600" d="M240 539Q273 539 312 539T384 539Q388 539 390 538T393 534T395 528V390Q363 390 324 390T251 390Q248 390 246 391T242 395T240 401V539ZM302 -188Q246 -188 203 -176T133 -141T91 -90T77 -26V5Q77 39 86 64T116
112T173 159L212 185Q241 206 255 219T273 246T278 281V289H359Q363 289 365 288T368 285T370 278V263Q370 234 362 212T334 169T275 122L240 98Q212 79 197 65T175 37T169 3Q169 -5 170 -12T174 -25Q178 -61 209 -79T303 -98Q359 -98 405 -84T501 -33H516Q516
-54 516 -75T516 -117Q516 -121 515 -122T512 -126Q495 -144 463 -158T390 -180T302 -188Z" />
<glyph unicode="&#xc0;" horiz-adv-x="650" d="M148 278H402Q414 278 425 278T448 278L476 288L486 241L496 197H158Q155 197 153 198T149 202T147 208L148 278ZM128 0Q108 0 88 0T47 0Q44 0 42 1T39 6T39 14Q51 52 65 97T94 195T125 301T158 410T189 518T219
618T246 706Q285 706 327 706T401 706Q405 706 407 705T411 701T413 695Q433 626 454 555T497 409T541 257T587 99Q593 74 599 50T612 0Q593 0 571 0T529 0Q525 0 522 1T517 7T513 18Q493 88 473 159T433 300T394 433T361 551T335 646L363 628H294L322 645Q310
604 295 553T261 439T221 307T176 159T128 0ZM261 945Q281 914 298 887T332 833T368 775Q356 775 346 775T324 775T295 775Q289 775 285 777T278 783Q254 810 239 828T211 861T185 892T152 930Q148 935 150 940T159 945Q180 945 193 945T222 945T261 945Z" />
<glyph unicode="&#xc1;" horiz-adv-x="650" d="M148 278H402Q414 278 425 278T448 278L476 288L486 241L496 197H158Q155 197 153 198T149 202T147 208L148 278ZM128 0Q108 0 88 0T47 0Q44 0 42 1T39 6T39 14Q51 52 65 97T94 195T125 301T158 410T189 518T219
618T246 706Q285 706 327 706T401 706Q405 706 407 705T411 701T413 695Q433 626 454 555T497 409T541 257T587 99Q593 74 599 50T612 0Q593 0 571 0T529 0Q525 0 522 1T517 7T513 18Q493 88 473 159T433 300T394 433T361 551T335 646L363 628H294L322 645Q310
604 295 553T261 439T221 307T176 159T128 0ZM393 945Q417 945 431 945T457 945T490 945Q496 945 498 940T496 930Q478 909 465 893T439 861T410 828T371 783Q369 780 365 778T354 775Q337 775 326 775T305 775T284 775Q304 806 321 833T355 887T393 945Z" />
<glyph unicode="&#xc2;" horiz-adv-x="650" d="M148 278H402Q414 278 425 278T448 278L476 288L486 241L496 197H158Q155 197 153 198T149 202T147 208L148 278ZM128 0Q108 0 88 0T47 0Q44 0 42 1T39 6T39 14Q51 52 65 97T94 195T125 301T158 410T189 518T219
618T246 706Q285 706 327 706T401 706Q405 706 407 705T411 701T413 695Q433 626 454 555T497 409T541 257T587 99Q593 74 599 50T612 0Q593 0 571 0T529 0Q525 0 522 1T517 7T513 18Q493 88 473 159T433 300T394 433T361 551T335 646L363 628H294L322 645Q310
604 295 553T261 439T221 307T176 159T128 0ZM276 946Q286 946 302 946T334 946T360 946Q368 946 373 943T394 925Q402 918 420 901T461 863T509 819T554 776Q535 777 513 777T473 776Q462 776 457 777T444 786Q428 799 392 828T304 901L357 881Q341 881 325 881T293
881L345 902Q295 860 258 830T193 776H117Q113 776 111 777T107 779T106 783Q106 787 110 791T129 810Q142 822 161 839T202 877T243 916T276 946Z" />
<glyph unicode="&#xc3;" horiz-adv-x="650" d="M148 278H402Q414 278 425 278T448 278L476 288L486 241L496 197H158Q155 197 153 198T149 202T147 208L148 278ZM128 0Q108 0 88 0T47 0Q44 0 42 1T39 6T39 14Q51 52 65 97T94 195T125 301T158 410T189 518T219
618T246 706Q285 706 327 706T401 706Q405 706 407 705T411 701T413 695Q433 626 454 555T497 409T541 257T587 99Q593 74 599 50T612 0Q593 0 571 0T529 0Q525 0 522 1T517 7T513 18Q493 88 473 159T433 300T394 433T361 551T335 646L363 628H294L322 645Q310
604 295 553T261 439T221 307T176 159T128 0ZM420 867Q445 867 463 877T500 910H514Q514 893 514 877T514 844Q514 839 513 835T507 826Q491 810 471 800T418 789Q390 789 366 798T319 819T275 840T230 850Q205 850 187 840T150 806H136Q136 823 136 840T136 872Q136
877 137 881T143 891Q159 907 179 917T232 928Q260 928 284 919T331 897T375 876T420 867Z" />
<glyph unicode="&#xc4;" horiz-adv-x="650" d="M148 278H402Q414 278 425 278T448 278L476 288L486 241L496 197H158Q155 197 153 198T149 202T147 208L148 278ZM128 0Q108 0 88 0T47 0Q44 0 42 1T39 6T39 14Q51 52 65 97T94 195T125 301T158 410T189 518T219
618T246 706Q285 706 327 706T401 706Q405 706 407 705T411 701T413 695Q433 626 454 555T497 409T541 257T587 99Q593 74 599 50T612 0Q593 0 571 0T529 0Q525 0 522 1T517 7T513 18Q493 88 473 159T433 300T394 433T361 551T335 646L363 628H294L322 645Q310
604 295 553T261 439T221 307T176 159T128 0ZM165 908Q190 908 215 908T266 908Q270 908 272 907T275 903T277 897V800Q252 800 227 800T176 800Q173 800 171 801T167 805T165 811V908ZM373 908Q398 908 423 908T474 908Q478 908 480 907T483 903T485 897V800Q460
800 435 800T384 800Q381 800 379 801T375 805T373 811V908Z" />
<glyph unicode="&#xc5;" horiz-adv-x="650" d="M148 278H402Q414 278 425 278T448 278L476 288L486 241L496 197H158Q155 197 153 198T149 202T147 208L148 278ZM128 0Q108 0 88 0T47 0Q44 0 42 1T39 6T39 14Q51 52 65 97T94 195T125 301T158 410T189 518T219
618T246 706Q285 706 327 706T401 706Q405 706 407 705T411 701T413 695Q433 626 454 555T497 409T541 257T587 99Q593 74 599 50T612 0Q593 0 571 0T529 0Q525 0 522 1T517 7T513 18Q493 88 473 159T433 300T394 433T361 551T335 646L363 628H294L322 645Q310
604 295 553T261 439T221 307T176 159T128 0ZM325 897Q373 897 407 884T460 845T479 786V760Q479 726 460 702T407 663T325 649Q277 649 243 663T190 701T171 760V786Q171 820 189 845T242 883T325 897ZM325 834Q290 834 270 821T250 783V763Q250 752 255 743T270
726Q280 719 293 716T325 713Q360 713 380 726T400 763V783Q400 795 396 804T382 820Q373 827 359 830T325 834Z" />
<glyph unicode="&#xc6;" horiz-adv-x="800" d="M108 0Q93 0 80 0T52 0T24 0Q21 0 17 3T16 13Q48 93 82 180T152 357T222 533T287 700Q305 700 322 700T357 700T392 700H735Q740 700 743 697T746 689Q746 670 746 652T746 615H326L364 643Q331 561 299 479T234
316T170 156T108 0ZM379 637H477L472 624Q472 616 472 608T472 591Q472 528 472 465T472 338T472 211T472 85H735Q740 85 743 82T746 74Q746 56 746 38T746 0H390Q387 0 385 0T381 3T379 8Q379 87 379 165T379 322T379 480T379 637ZM151 260H353Q362 260 371 260T388
260L399 261V176H162Q157 176 154 179T151 187V260ZM403 392H695Q700 392 703 389T706 381Q706 362 706 346T706 309H403V392Z" />
<glyph unicode="&#xc7;" horiz-adv-x="600" d="M333 -20Q267 -20 217 -2T133 50T82 134T65 247V457Q65 518 82 566T133 648T216 701T327 720Q377 720 416 711T482 687T527 654Q529 653 530 651T531 646T532 641Q532 605 532 563T532 483Q513 483 494 483T456 483Q451
483 448 486T445 494Q445 515 445 537T445 583T445 635L470 588Q439 613 405 623T326 633Q275 633 238 613T181 554T161 453V255Q161 207 172 170T209 107Q231 85 263 76T333 66Q390 66 432 81T519 130H535Q535 120 535 111T535 92T535 74T535 56Q535 52 534 49T530
44Q511 25 482 11T415 -11T333 -20ZM434 -125Q434 -175 400 -203T301 -232Q270 -232 252 -228T225 -217T216 -203Q216 -191 216 -181T216 -162T216 -146H228Q240 -153 254 -157T293 -162Q319 -162 336 -151T353 -117Q353 -96 339 -86T289 -75Q284 -75 281 -72T279
-62Q283 -50 286 -40T292 -19T298 2T305 22Q307 28 311 31T326 35T359 36Q357 28 355 20T352 4T348 -11T345 -26L342 -37Q385 -39 409 -61T434 -125Z" />
<glyph unicode="&#xc8;" horiz-adv-x="550" d="M24 700H483Q487 700 489 699T492 695T494 689Q494 669 494 653T494 616H35Q32 616 30 617T26 621T24 627Q24 648 24 664T24 700ZM137 395H429Q432 395 434 394T438 390T440 384Q440 371 440 359T440 337T440 313H137V395ZM95
0Q93 0 91 1T88 3T85 7T84 11Q84 59 84 119T84 246T84 384T84 524T84 659H186L179 643Q179 622 179 600T179 555Q179 502 179 443T179 323T179 201T179 84H483Q488 84 491 81T494 73Q494 54 494 37T494 0H95ZM205 945Q225 914 242 887T276 833T312 775Q300 775
290 775T268 775T239 775Q233 775 229 777T222 783Q198 810 183 828T155 861T129 892T96 930Q92 935 94 940T103 945Q124 945 137 945T166 945T205 945Z" />
<glyph unicode="&#xc9;" horiz-adv-x="550" d="M24 700H483Q487 700 489 699T492 695T494 689Q494 669 494 653T494 616H35Q32 616 30 617T26 621T24 627Q24 648 24 664T24 700ZM137 395H429Q432 395 434 394T438 390T440 384Q440 371 440 359T440 337T440 313H137V395ZM95
0Q93 0 91 1T88 3T85 7T84 11Q84 59 84 119T84 246T84 384T84 524T84 659H186L179 643Q179 622 179 600T179 555Q179 502 179 443T179 323T179 201T179 84H483Q488 84 491 81T494 73Q494 54 494 37T494 0H95ZM337 945Q361 945 375 945T401 945T434 945Q440 945
442 940T440 930Q422 909 409 893T383 861T354 828T315 783Q313 780 309 778T298 775Q281 775 270 775T249 775T228 775Q248 806 265 833T299 887T337 945Z" />
<glyph unicode="&#xca;" horiz-adv-x="550" d="M24 700H483Q487 700 489 699T492 695T494 689Q494 669 494 653T494 616H35Q32 616 30 617T26 621T24 627Q24 648 24 664T24 700ZM137 395H429Q432 395 434 394T438 390T440 384Q440 371 440 359T440 337T440 313H137V395ZM95
0Q93 0 91 1T88 3T85 7T84 11Q84 59 84 119T84 246T84 384T84 524T84 659H186L179 643Q179 622 179 600T179 555Q179 502 179 443T179 323T179 201T179 84H483Q488 84 491 81T494 73Q494 54 494 37T494 0H95ZM220 946Q230 946 246 946T278 946T304 946Q312 946
317 943T338 925Q346 918 364 901T405 863T453 819T498 776Q479 777 457 777T417 776Q406 776 401 777T388 786Q372 799 336 828T248 901L301 881Q285 881 269 881T237 881L289 902Q239 860 202 830T137 776H61Q57 776 55 777T51 779T50 783Q50 787 54 791T73 810Q86
822 105 839T146 877T187 916T220 946Z" />
<glyph unicode="&#xcb;" horiz-adv-x="550" d="M24 700H483Q487 700 489 699T492 695T494 689Q494 669 494 653T494 616H35Q32 616 30 617T26 621T24 627Q24 648 24 664T24 700ZM137 395H429Q432 395 434 394T438 390T440 384Q440 371 440 359T440 337T440 313H137V395ZM95
0Q93 0 91 1T88 3T85 7T84 11Q84 59 84 119T84 246T84 384T84 524T84 659H186L179 643Q179 622 179 600T179 555Q179 502 179 443T179 323T179 201T179 84H483Q488 84 491 81T494 73Q494 54 494 37T494 0H95ZM109 908Q134 908 159 908T210 908Q214 908 216 907T219
903T221 897V800Q196 800 171 800T120 800Q117 800 115 801T111 805T109 811V908ZM317 908Q342 908 367 908T418 908Q422 908 424 907T427 903T429 897V800Q404 800 379 800T328 800Q325 800 323 801T319 805T317 811V908Z" />
<glyph unicode="&#xcc;" horiz-adv-x="500" d="M298 47H199L202 73Q202 91 202 112T202 152Q202 214 202 276T202 401T202 527T202 653H303L298 627Q298 611 298 593T298 558Q298 494 298 430T298 302T298 175T298 47ZM424 0H87Q84 0 82 1T79 3T77 7T76 11Q76
24 76 35T76 59T76 84H413Q416 84 418 83T422 79T424 73Q424 60 424 48T424 25T424 0ZM76 700H413Q418 700 421 697T424 689Q424 679 424 670T424 653T424 635T424 616H87Q82 616 79 619T76 627Q76 637 76 646T76 663T76 681T76 700ZM186 945Q206 914 223 887T257
833T293 775Q281 775 271 775T249 775T220 775Q214 775 210 777T203 783Q179 810 164 828T136 861T110 892T77 930Q73 935 75 940T84 945Q105 945 118 945T147 945T186 945Z" />
<glyph unicode="&#xcd;" horiz-adv-x="500" d="M298 47H199L202 73Q202 91 202 112T202 152Q202 214 202 276T202 401T202 527T202 653H303L298 627Q298 611 298 593T298 558Q298 494 298 430T298 302T298 175T298 47ZM424 0H87Q84 0 82 1T79 3T77 7T76 11Q76
24 76 35T76 59T76 84H413Q416 84 418 83T422 79T424 73Q424 60 424 48T424 25T424 0ZM76 700H413Q418 700 421 697T424 689Q424 679 424 670T424 653T424 635T424 616H87Q82 616 79 619T76 627Q76 637 76 646T76 663T76 681T76 700ZM318 945Q342 945 356 945T382
945T415 945Q421 945 423 940T421 930Q403 909 390 893T364 861T335 828T296 783Q294 780 290 778T279 775Q262 775 251 775T230 775T209 775Q229 806 246 833T280 887T318 945Z" />
<glyph unicode="&#xce;" horiz-adv-x="500" d="M298 47H199L202 73Q202 91 202 112T202 152Q202 214 202 276T202 401T202 527T202 653H303L298 627Q298 611 298 593T298 558Q298 494 298 430T298 302T298 175T298 47ZM424 0H87Q84 0 82 1T79 3T77 7T76 11Q76
24 76 35T76 59T76 84H413Q416 84 418 83T422 79T424 73Q424 60 424 48T424 25T424 0ZM76 700H413Q418 700 421 697T424 689Q424 679 424 670T424 653T424 635T424 616H87Q82 616 79 619T76 627Q76 637 76 646T76 663T76 681T76 700ZM201 946Q211 946 227 946T259
946T285 946Q293 946 298 943T319 925Q327 918 345 901T386 863T434 819T479 776Q460 777 438 777T398 776Q387 776 382 777T369 786Q353 799 317 828T229 901L282 881Q266 881 250 881T218 881L270 902Q220 860 183 830T118 776H42Q38 776 36 777T32 779T31 783Q31
787 35 791T54 810Q67 822 86 839T127 877T168 916T201 946Z" />
<glyph unicode="&#xcf;" horiz-adv-x="500" d="M298 47H199L202 73Q202 91 202 112T202 152Q202 214 202 276T202 401T202 527T202 653H303L298 627Q298 611 298 593T298 558Q298 494 298 430T298 302T298 175T298 47ZM424 0H87Q84 0 82 1T79 3T77 7T76 11Q76
24 76 35T76 59T76 84H413Q416 84 418 83T422 79T424 73Q424 60 424 48T424 25T424 0ZM76 700H413Q418 700 421 697T424 689Q424 679 424 670T424 653T424 635T424 616H87Q82 616 79 619T76 627Q76 637 76 646T76 663T76 681T76 700ZM90 908Q115 908 140 908T191
908Q195 908 197 907T200 903T202 897V800Q177 800 152 800T101 800Q98 800 96 801T92 805T90 811V908ZM298 908Q323 908 348 908T399 908Q403 908 405 907T408 903T410 897V800Q385 800 360 800T309 800Q306 800 304 801T300 805T298 811V908Z" />
<glyph unicode="&#xd0;" horiz-adv-x="650" d="M19 392H341Q346 392 349 389T352 381Q352 366 352 352T352 322H30Q25 322 22 325T19 333Q19 348 19 362T19 392ZM583 242Q583 181 565 135T513 60T431 15T326 0Q302 0 276 0T224 0T174 0T131 0T101 0Q96 0 93 3T90
11Q90 92 90 172T90 333T90 494T90 656H195L186 639Q186 612 186 583T186 525Q186 469 186 415T186 306T186 198T186 86Q203 86 225 86T273 86T323 86Q382 86 419 104T474 157T492 248V452Q492 483 488 507T474 549T449 580Q434 593 416 600T374 611T318 614Q283
614 247 614T175 614T105 614T41 614Q38 614 36 615T32 619T30 625Q30 642 30 662T30 700Q60 700 95 700T169 700T246 700T326 700Q390 700 438 685T518 640T567 564T583 458V242Z" />
<glyph unicode="&#xd1;" horiz-adv-x="650" d="M159 0Q139 0 119 0T79 0Q76 0 74 1T70 5T68 11Q68 82 68 152T68 293T68 435T68 577Q68 607 68 638T68 700Q84 700 105 700T146 700T183 700Q187 700 190 699T196 694T204 680Q221 648 242 607T289 517T342 417T397
310T453 203T505 100L465 131H527L510 113Q505 160 502 205T496 294T493 381T492 466T491 550Q491 585 491 623T491 700Q511 700 531 700T571 700Q576 700 579 697T582 689Q582 621 582 552T582 415T582 278T582 140Q582 105 582 70T582 0Q568 0 550 0T513 0T481
0Q475 0 469 3T455 22Q416 91 378 163T300 310T222 460T145 610L185 574H127L142 601Q147 549 149 501T154 407T157 319T159 237T159 161Q158 126 158 83T159 0ZM445 867Q470 867 488 877T525 910H539Q539 893 539 877T539 844Q539 839 538 835T532 826Q516 810
496 800T443 789Q415 789 391 798T344 819T300 840T255 850Q230 850 212 840T175 806H161Q161 823 161 840T161 872Q161 877 162 881T168 891Q184 907 204 917T257 928Q285 928 309 919T356 897T400 876T445 867Z" />
<glyph unicode="&#xd2;" horiz-adv-x="650" d="M326 720Q399 720 457 690T549 600T583 446V245Q583 156 548 97T455 9T324 -20Q254 -20 196 9T102 97T67 245V446Q67 539 101 599T194 690T326 720ZM158 247Q158 191 173 157T210 104Q228 87 256 76T326 64Q375 64
411 85T470 148T492 250V455Q492 491 486 517T469 563T443 597Q424 615 395 625T326 636Q268 636 231 614T176 551T158 455V247ZM261 945Q281 914 298 887T332 833T368 775Q356 775 346 775T324 775T295 775Q289 775 285 777T278 783Q254 810 239 828T211 861T185
892T152 930Q148 935 150 940T159 945Q180 945 193 945T222 945T261 945Z" />
<glyph unicode="&#xd3;" horiz-adv-x="650" d="M326 720Q399 720 457 690T549 600T583 446V245Q583 156 548 97T455 9T324 -20Q254 -20 196 9T102 97T67 245V446Q67 539 101 599T194 690T326 720ZM158 247Q158 191 173 157T210 104Q228 87 256 76T326 64Q375 64
411 85T470 148T492 250V455Q492 491 486 517T469 563T443 597Q424 615 395 625T326 636Q268 636 231 614T176 551T158 455V247ZM393 945Q417 945 431 945T457 945T490 945Q496 945 498 940T496 930Q478 909 465 893T439 861T410 828T371 783Q369 780 365 778T354
775Q337 775 326 775T305 775T284 775Q304 806 321 833T355 887T393 945Z" />
<glyph unicode="&#xd4;" horiz-adv-x="650" d="M326 720Q399 720 457 690T549 600T583 446V245Q583 156 548 97T455 9T324 -20Q254 -20 196 9T102 97T67 245V446Q67 539 101 599T194 690T326 720ZM158 247Q158 191 173 157T210 104Q228 87 256 76T326 64Q375 64
411 85T470 148T492 250V455Q492 491 486 517T469 563T443 597Q424 615 395 625T326 636Q268 636 231 614T176 551T158 455V247ZM276 946Q286 946 302 946T334 946T360 946Q368 946 373 943T394 925Q402 918 420 901T461 863T509 819T554 776Q535 777 513 777T473
776Q462 776 457 777T444 786Q428 799 392 828T304 901L357 881Q341 881 325 881T293 881L345 902Q295 860 258 830T193 776H117Q113 776 111 777T107 779T106 783Q106 787 110 791T129 810Q142 822 161 839T202 877T243 916T276 946Z" />
<glyph unicode="&#xd5;" horiz-adv-x="650" d="M326 720Q399 720 457 690T549 600T583 446V245Q583 156 548 97T455 9T324 -20Q254 -20 196 9T102 97T67 245V446Q67 539 101 599T194 690T326 720ZM158 247Q158 191 173 157T210 104Q228 87 256 76T326 64Q375 64
411 85T470 148T492 250V455Q492 491 486 517T469 563T443 597Q424 615 395 625T326 636Q268 636 231 614T176 551T158 455V247ZM420 867Q445 867 463 877T500 910H514Q514 893 514 877T514 844Q514 839 513 835T507 826Q491 810 471 800T418 789Q390 789 366 798T319
819T275 840T230 850Q205 850 187 840T150 806H136Q136 823 136 840T136 872Q136 877 137 881T143 891Q159 907 179 917T232 928Q260 928 284 919T331 897T375 876T420 867Z" />
<glyph unicode="&#xd6;" horiz-adv-x="650" d="M326 720Q399 720 457 690T549 600T583 446V245Q583 156 548 97T455 9T324 -20Q254 -20 196 9T102 97T67 245V446Q67 539 101 599T194 690T326 720ZM158 247Q158 191 173 157T210 104Q228 87 256 76T326 64Q375 64
411 85T470 148T492 250V455Q492 491 486 517T469 563T443 597Q424 615 395 625T326 636Q268 636 231 614T176 551T158 455V247ZM165 908Q190 908 215 908T266 908Q270 908 272 907T275 903T277 897V800Q252 800 227 800T176 800Q173 800 171 801T167 805T165 811V908ZM373
908Q398 908 423 908T474 908Q478 908 480 907T483 903T485 897V800Q460 800 435 800T384 800Q381 800 379 801T375 805T373 811V908Z" />
<glyph unicode="&#xd7;" horiz-adv-x="600" d="M163 496Q166 496 169 493Q248 414 334 328T498 164Q485 151 470 136T441 107Q440 106 439 105T435 104Q434 104 433 105T429 107Q378 159 321 215T208 328T100 436Q112 448 127 463T157 493Q159 495 160 495T163
496ZM100 164Q177 241 263 327T429 493Q431 495 432 495T435 496Q437 496 438 496T441 493Q445 489 453 481T470 464T487 447T498 436Q447 385 391 328T278 215T169 107Q168 106 167 105T163 104Q162 104 161 105T157 107Q153 111 145 119T128 136T111 153T100
164Z" />
<glyph unicode="&#xd8;" horiz-adv-x="650" d="M567 776Q545 732 524 688T482 603L492 568H427L445 578Q442 548 433 514T407 442Q379 383 352 323T297 203T241 84Q235 72 229 61T217 37Q207 17 199 1T184 -30T168 -64Q164 -73 161 -74T151 -76Q146 -76 136 -76T114
-76T92 -76T78 -76Q90 -52 102 -26T125 24T146 65L172 136H214L202 121Q204 141 208 162T221 207T240 255Q270 319 301 386T361 515T414 628Q420 640 424 651T433 673Q445 699 455 720T472 757Q478 770 482 773T496 776Q509 776 520 776T542 776T567 776ZM326 720Q399
720 457 690T549 600T583 446V245Q583 156 548 97T455 9T324 -20Q254 -20 196 9T102 97T67 245V446Q67 539 101 599T194 690T326 720ZM158 247Q158 191 173 157T210 104Q228 87 256 76T326 64Q375 64 411 85T470 148T492 250V455Q492 491 486 517T469 563T443 597Q424
615 395 625T326 636Q268 636 231 614T176 551T158 455V247Z" />
<glyph unicode="&#xd9;" horiz-adv-x="650" d="M568 0Q554 0 540 0T512 0T484 0Q482 0 480 0T477 2T475 4T474 7T473 11Q473 97 473 183T473 355T473 528T473 700Q487 700 501 700T529 700T557 700Q560 700 562 699T566 695T568 689Q568 616 568 543T568 397T568
250T568 104Q568 77 568 51T568 0ZM253 -16Q209 -16 177 -4T123 33T90 91T79 170Q79 234 79 304T79 450T79 601Q79 626 79 650T79 700Q100 700 121 700T163 700Q167 700 169 699T172 695T174 689Q174 604 174 516T174 342T174 175Q174 124 200 97T275 70Q315 70
352 85T424 137T494 236V97H453Q429 62 400 37T335 -2T253 -16ZM259 945Q279 914 296 887T330 833T366 775Q354 775 344 775T322 775T293 775Q287 775 283 777T276 783Q252 810 237 828T209 861T183 892T150 930Q146 935 148 940T157 945Q178 945 191 945T220 945T259
945Z" />
<glyph unicode="&#xda;" horiz-adv-x="650" d="M568 0Q554 0 540 0T512 0T484 0Q482 0 480 0T477 2T475 4T474 7T473 11Q473 97 473 183T473 355T473 528T473 700Q487 700 501 700T529 700T557 700Q560 700 562 699T566 695T568 689Q568 616 568 543T568 397T568
250T568 104Q568 77 568 51T568 0ZM253 -16Q209 -16 177 -4T123 33T90 91T79 170Q79 234 79 304T79 450T79 601Q79 626 79 650T79 700Q100 700 121 700T163 700Q167 700 169 699T172 695T174 689Q174 604 174 516T174 342T174 175Q174 124 200 97T275 70Q315 70
352 85T424 137T494 236V97H453Q429 62 400 37T335 -2T253 -16ZM391 945Q415 945 429 945T455 945T488 945Q494 945 496 940T494 930Q476 909 463 893T437 861T408 828T369 783Q367 780 363 778T352 775Q335 775 324 775T303 775T282 775Q302 806 319 833T353 887T391
945Z" />
<glyph unicode="&#xdb;" horiz-adv-x="650" d="M568 0Q554 0 540 0T512 0T484 0Q482 0 480 0T477 2T475 4T474 7T473 11Q473 97 473 183T473 355T473 528T473 700Q487 700 501 700T529 700T557 700Q560 700 562 699T566 695T568 689Q568 616 568 543T568 397T568
250T568 104Q568 77 568 51T568 0ZM253 -16Q209 -16 177 -4T123 33T90 91T79 170Q79 234 79 304T79 450T79 601Q79 626 79 650T79 700Q100 700 121 700T163 700Q167 700 169 699T172 695T174 689Q174 604 174 516T174 342T174 175Q174 124 200 97T275 70Q315 70
352 85T424 137T494 236V97H453Q429 62 400 37T335 -2T253 -16ZM274 946Q284 946 300 946T332 946T358 946Q366 946 371 943T392 925Q400 918 418 901T459 863T507 819T552 776Q533 777 511 777T471 776Q460 776 455 777T442 786Q426 799 390 828T302 901L355 881Q339
881 323 881T291 881L343 902Q293 860 256 830T191 776H115Q111 776 109 777T105 779T104 783Q104 787 108 791T127 810Q140 822 159 839T200 877T241 916T274 946Z" />
<glyph unicode="&#xdc;" horiz-adv-x="650" d="M568 0Q554 0 540 0T512 0T484 0Q482 0 480 0T477 2T475 4T474 7T473 11Q473 97 473 183T473 355T473 528T473 700Q487 700 501 700T529 700T557 700Q560 700 562 699T566 695T568 689Q568 616 568 543T568 397T568
250T568 104Q568 77 568 51T568 0ZM253 -16Q209 -16 177 -4T123 33T90 91T79 170Q79 234 79 304T79 450T79 601Q79 626 79 650T79 700Q100 700 121 700T163 700Q167 700 169 699T172 695T174 689Q174 604 174 516T174 342T174 175Q174 124 200 97T275 70Q315 70
352 85T424 137T494 236V97H453Q429 62 400 37T335 -2T253 -16ZM163 908Q188 908 213 908T264 908Q268 908 270 907T273 903T275 897V800Q250 800 225 800T174 800Q171 800 169 801T165 805T163 811V908ZM371 908Q396 908 421 908T472 908Q476 908 478 907T481
903T483 897V800Q458 800 433 800T382 800Q379 800 377 801T373 805T371 811V908Z" />
<glyph unicode="&#xdd;" horiz-adv-x="650" d="M374 0Q360 0 346 0T318 0T289 0Q286 0 284 1T280 5T278 11Q278 85 278 161T278 312H374Q374 278 374 242T374 170T374 100Q374 74 374 49T374 0ZM34 700Q57 700 80 700T123 700Q130 700 133 699T140 694T145 684Q171
637 196 592T244 501T289 408T332 310L302 345H360L324 308Q347 364 369 411T413 504T460 596T517 700Q540 700 561 700T602 700Q608 700 611 695T610 682Q588 641 564 598T515 510T465 420T414 332T365 247Q338 247 323 247T299 248T288 251T283 255Q268 280 246
319T198 405T143 504T87 606T34 700ZM392 945Q416 945 430 945T456 945T489 945Q495 945 497 940T495 930Q477 909 464 893T438 861T409 828T370 783Q368 780 364 778T353 775Q336 775 325 775T304 775T283 775Q303 806 320 833T354 887T392 945Z" />
<glyph unicode="&#xde;" horiz-adv-x="600" d="M77 700Q99 700 119 700T162 700Q167 700 170 697T173 689Q173 603 173 517T173 345T173 172T173 0Q151 0 131 0T88 0Q85 0 83 1T79 5T77 11Q77 85 77 158T77 304T77 451T77 598Q77 624 77 649T77 700ZM131 579Q175
579 220 579T309 579Q361 579 403 569T475 535T522 475T539 383V322Q539 276 525 240T482 179T415 141T325 127Q279 127 234 127T142 127L131 120V213Q178 213 225 213T319 213Q360 213 387 226T428 263T442 324V386Q442 412 436 430T418 462Q402 477 376 484T310
492Q283 492 256 492T199 492Q185 492 171 492T142 492Q137 492 134 495T131 503Q131 522 131 541T131 579Z" />
<glyph unicode="&#xdf;" horiz-adv-x="600" d="M93 571Q93 627 118 670T193 739T313 764Q356 764 393 756T457 731T499 687T514 622V608Q514 586 508 566T489 526T452 486L417 456Q390 433 380 418T370 389Q370 372 379 361T416 332L452 310Q489 287 509 264T538
216T546 156V145Q546 98 526 63T470 10T383 -8Q332 -8 303 4T263 27Q262 29 261 30T260 34Q260 55 260 75T260 116H275Q299 96 320 88T380 79Q401 79 416 84T441 100Q450 111 455 125T460 156Q460 174 455 189T435 221T386 257L349 281Q310 304 297 330T283 384V395Q283
413 289 430T308 465T342 501L389 541Q406 555 415 566T427 588T430 612Q430 642 406 659T318 677Q282 677 257 670T216 647Q206 637 199 623T188 591T184 552Q184 509 184 465T184 374T184 282T184 190T184 99T184 11Q184 7 183 5T179 2T173 0Q154 0 134 0T93
0Q93 17 93 33T93 66T93 100Q93 166 93 223T93 335T93 447T93 571Z" />
<glyph unicode="&#xe0;" horiz-adv-x="600" d="M497 351Q497 323 497 295T497 239T497 182T497 126Q497 113 499 104T507 90Q512 85 519 83T536 81Q538 81 540 81T546 81H561Q561 63 561 46T561 11Q561 5 558 3T550 0Q545 0 535 0T515 0Q492 0 472 7T437 28T414
62T406 111Q406 146 406 183T406 256Q406 272 406 288T406 320T406 352Q406 392 395 414T356 446T283 456Q254 456 227 453T175 444T123 427H108Q108 445 108 463T108 499Q108 502 109 504T111 507Q116 513 141 521T204 535T283 542Q339 542 379 532T446 498T484
439T497 351ZM162 142Q162 108 181 91T240 73Q274 73 304 82T364 112T424 172V85H395Q378 54 354 33T296 1T223 -10Q176 -10 142 7T89 56T70 132V164Q70 197 81 223T112 268T162 296T227 306Q262 306 294 306T359 306T424 306Q433 306 436 296T441 270T442 241Q405
241 374 241T310 241T240 241Q219 241 205 237T180 221Q171 213 167 201T162 172V142ZM232 817Q252 785 271 754T310 691T348 629Q331 629 314 629T277 629Q271 629 267 631T260 637Q232 671 211 696T169 746T124 800Q120 805 122 811T131 817Q149 817 164 817T196
817T232 817Z" />
<glyph unicode="&#xe1;" horiz-adv-x="600" d="M497 351Q497 323 497 295T497 239T497 182T497 126Q497 113 499 104T507 90Q512 85 519 83T536 81Q538 81 540 81T546 81H561Q561 63 561 46T561 11Q561 5 558 3T550 0Q545 0 535 0T515 0Q492 0 472 7T437 28T414
62T406 111Q406 146 406 183T406 256Q406 272 406 288T406 320T406 352Q406 392 395 414T356 446T283 456Q254 456 227 453T175 444T123 427H108Q108 445 108 463T108 499Q108 502 109 504T111 507Q116 513 141 521T204 535T283 542Q339 542 379 532T446 498T484
439T497 351ZM162 142Q162 108 181 91T240 73Q274 73 304 82T364 112T424 172V85H395Q378 54 354 33T296 1T223 -10Q176 -10 142 7T89 56T70 132V164Q70 197 81 223T112 268T162 296T227 306Q262 306 294 306T359 306T424 306Q433 306 436 296T441 270T442 241Q405
241 374 241T310 241T240 241Q219 241 205 237T180 221Q171 213 167 201T162 172V142ZM378 817Q408 817 429 817T478 817Q486 817 488 811T485 800Q461 771 441 746T399 696T349 637Q347 634 343 632T332 629Q313 629 297 629T262 629Q281 659 300 690T339 753T378
817Z" />
<glyph unicode="&#xe2;" horiz-adv-x="600" d="M497 351Q497 323 497 295T497 239T497 182T497 126Q497 113 499 104T507 90Q512 85 519 83T536 81Q538 81 540 81T546 81H561Q561 63 561 46T561 11Q561 5 558 3T550 0Q545 0 535 0T515 0Q492 0 472 7T437 28T414
62T406 111Q406 146 406 183T406 256Q406 272 406 288T406 320T406 352Q406 392 395 414T356 446T283 456Q254 456 227 453T175 444T123 427H108Q108 445 108 463T108 499Q108 502 109 504T111 507Q116 513 141 521T204 535T283 542Q339 542 379 532T446 498T484
439T497 351ZM162 142Q162 108 181 91T240 73Q274 73 304 82T364 112T424 172V85H395Q378 54 354 33T296 1T223 -10Q176 -10 142 7T89 56T70 132V164Q70 197 81 223T112 268T162 296T227 306Q262 306 294 306T359 306T424 306Q433 306 436 296T441 270T442 241Q405
241 374 241T310 241T240 241Q219 241 205 237T180 221Q171 213 167 201T162 172V142ZM268 816Q283 816 298 816T328 816Q336 816 341 812T360 794Q367 785 386 765T429 717T477 663T522 614Q503 614 486 614T449 614Q438 614 433 616T420 625Q407 638 372 674T285
763L331 742H278L323 763Q272 711 238 676T176 614H110Q106 614 104 615T100 618T99 623Q99 627 103 631T120 651Q132 665 152 687T195 735T238 782T268 816Z" />
<glyph unicode="&#xe3;" horiz-adv-x="600" d="M497 351Q497 323 497 295T497 239T497 182T497 126Q497 113 499 104T507 90Q512 85 519 83T536 81Q538 81 540 81T546 81H561Q561 63 561 46T561 11Q561 5 558 3T550 0Q545 0 535 0T515 0Q492 0 472 7T437 28T414
62T406 111Q406 146 406 183T406 256Q406 272 406 288T406 320T406 352Q406 392 395 414T356 446T283 456Q254 456 227 453T175 444T123 427H108Q108 445 108 463T108 499Q108 502 109 504T111 507Q116 513 141 521T204 535T283 542Q339 542 379 532T446 498T484
439T497 351ZM162 142Q162 108 181 91T240 73Q274 73 304 82T364 112T424 172V85H395Q378 54 354 33T296 1T223 -10Q176 -10 142 7T89 56T70 132V164Q70 197 81 223T112 268T162 296T227 306Q262 306 294 306T359 306T424 306Q433 306 436 296T441 270T442 241Q405
241 374 241T310 241T240 241Q219 241 205 237T180 221Q171 213 167 201T162 172V142ZM387 719Q414 719 437 733T479 772H493Q493 761 493 749T493 726T493 706Q493 699 492 695T485 683Q470 664 444 652T385 640Q355 640 335 648T297 668T262 688T221 697Q194
697 171 683T129 644H115Q115 655 115 667T115 690T115 710Q115 717 116 721T123 733Q139 753 164 764T223 776Q253 776 273 768T311 748T346 728T387 719Z" />
<glyph unicode="&#xe4;" horiz-adv-x="600" d="M497 351Q497 323 497 295T497 239T497 182T497 126Q497 113 499 104T507 90Q512 85 519 83T536 81Q538 81 540 81T546 81H561Q561 63 561 46T561 11Q561 5 558 3T550 0Q545 0 535 0T515 0Q492 0 472 7T437 28T414
62T406 111Q406 146 406 183T406 256Q406 272 406 288T406 320T406 352Q406 392 395 414T356 446T283 456Q254 456 227 453T175 444T123 427H108Q108 445 108 463T108 499Q108 502 109 504T111 507Q116 513 141 521T204 535T283 542Q339 542 379 532T446 498T484
439T497 351ZM162 142Q162 108 181 91T240 73Q274 73 304 82T364 112T424 172V85H395Q378 54 354 33T296 1T223 -10Q176 -10 142 7T89 56T70 132V164Q70 197 81 223T112 268T162 296T227 306Q262 306 294 306T359 306T424 306Q433 306 436 296T441 270T442 241Q405
241 374 241T310 241T240 241Q219 241 205 237T180 221Q171 213 167 201T162 172V142ZM144 755Q169 755 194 755T245 755Q249 755 251 754T254 750T256 744V643Q231 643 206 643T155 643Q152 643 150 644T146 648T144 654V755ZM352 755Q377 755 402 755T453 755Q457
755 459 754T462 750T464 744V643Q439 643 414 643T363 643Q360 643 358 644T354 648T352 654V755Z" />
<glyph unicode="&#xe5;" horiz-adv-x="600" d="M497 351Q497 323 497 295T497 239T497 182T497 126Q497 113 499 104T507 90Q512 85 519 83T536 81Q538 81 540 81T546 81H561Q561 63 561 46T561 11Q561 5 558 3T550 0Q545 0 535 0T515 0Q492 0 472 7T437 28T414
62T406 111Q406 146 406 183T406 256Q406 272 406 288T406 320T406 352Q406 392 395 414T356 446T283 456Q254 456 227 453T175 444T123 427H108Q108 445 108 463T108 499Q108 502 109 504T111 507Q116 513 141 521T204 535T283 542Q339 542 379 532T446 498T484
439T497 351ZM162 142Q162 108 181 91T240 73Q274 73 304 82T364 112T424 172V85H395Q378 54 354 33T296 1T223 -10Q176 -10 142 7T89 56T70 132V164Q70 197 81 223T112 268T162 296T227 306Q262 306 294 306T359 306T424 306Q433 306 436 296T441 270T442 241Q405
241 374 241T310 241T240 241Q219 241 205 237T180 221Q171 213 167 201T162 172V142ZM304 849Q343 849 370 836T413 798T428 741V714Q428 666 395 636T304 606Q247 606 214 636T180 714V741Q180 774 195 798T238 835T304 849ZM304 790Q277 790 262 777T246 738V717Q246
705 250 696T261 680Q268 673 279 670T304 666Q331 666 346 680T362 717V738Q362 749 359 758T349 774Q341 782 330 786T304 790Z" />
<glyph unicode="&#xe6;" horiz-adv-x="850" d="M247 543Q296 543 333 529T397 489T437 424L411 458H445L418 424Q437 480 480 511T587 543Q643 543 683 520T746 453T768 340Q768 317 768 294T768 248Q768 245 767 243T764 239T758 238Q721 238 685 238T613 238T540
238T468 238L439 236V303Q470 303 499 303T558 303T616 303T677 303Q677 308 677 312T677 322T677 333Q677 368 671 392T650 430Q638 444 619 450T574 456Q541 456 518 442T482 402T470 341V198Q470 169 480 147T509 107Q528 91 556 83T620 74Q647 74 669 77T711
87T751 107H766Q766 89 766 71T766 33Q766 31 765 29T762 25Q746 12 710 1T617 -11Q565 -11 525 4T456 48T414 114L440 80H406L435 114Q420 77 391 49T323 5T234 -10Q180 -10 144 8T89 58T70 131V167Q70 199 80 225T112 271T162 301T230 312Q271 312 304 306T361
292T399 275H416V223Q385 230 357 234T300 241T242 243Q218 243 204 238T180 224Q170 214 166 201T162 173V147Q162 109 183 92T244 74H251Q289 74 318 88T363 128T380 187V344Q380 380 366 404T322 441T243 454Q206 454 175 448T109 429H93Q93 448 93 466T93 503Q93
505 94 507T96 511Q103 517 124 524T177 537T247 543Z" />
<glyph unicode="&#xe7;" horiz-adv-x="500" d="M305 543Q343 543 371 537T418 523T442 508Q445 505 445 503T446 497Q446 479 446 461T446 424H431Q408 437 378 446T304 456Q258 456 226 440T177 389T160 303V221Q160 185 169 158T198 111Q216 94 243 85T304 76Q333
76 355 79T396 89T431 105H446Q446 86 446 68T446 31Q446 29 446 27T443 23Q436 16 419 8T373 -5T304 -11Q248 -11 204 4T129 48T83 119T67 217V306Q67 382 98 435T182 515T305 543ZM312 36Q310 28 308 20T305 3T301 -12T297 -27L295 -37Q338 -39 362 -61T387 -125Q387
-175 353 -203T254 -232Q223 -232 205 -228T178 -217T169 -203Q169 -191 169 -181T169 -162T169 -146H181Q193 -153 207 -157T246 -162Q272 -162 289 -151T306 -117Q306 -96 292 -86T242 -75Q237 -75 234 -72T232 -62Q236 -50 239 -40T245 -19T251 2T258 22Q260
28 264 31T279 35T312 36Z" />
<glyph unicode="&#xe8;" horiz-adv-x="600" d="M303 543Q362 543 411 519T489 445T519 318V245Q519 242 518 240T514 236T508 234H249Q232 234 215 234T182 234H152L139 299H429Q429 304 429 309T429 319Q429 358 421 386T394 433Q378 448 355 455T303 463Q238
463 203 429T168 316V211Q168 189 172 171T183 137T202 110Q222 90 254 81T330 71Q366 71 394 75T446 88T496 111H511Q511 93 511 75T511 40Q511 38 510 36T507 32Q495 20 468 10T405 -5T329 -11Q268 -11 220 3T141 46T93 116T77 211V315Q77 373 94 416T143 487T215
529T303 543ZM232 824Q252 792 271 761T310 698T348 636Q331 636 314 636T277 636Q271 636 267 638T260 644Q232 678 211 703T169 753T124 807Q120 812 122 818T131 824Q149 824 164 824T196 824T232 824Z" />
<glyph unicode="&#xe9;" horiz-adv-x="600" d="M303 543Q362 543 411 519T489 445T519 318V245Q519 242 518 240T514 236T508 234H249Q232 234 215 234T182 234H152L139 299H429Q429 304 429 309T429 319Q429 358 421 386T394 433Q378 448 355 455T303 463Q238
463 203 429T168 316V211Q168 189 172 171T183 137T202 110Q222 90 254 81T330 71Q366 71 394 75T446 88T496 111H511Q511 93 511 75T511 40Q511 38 510 36T507 32Q495 20 468 10T405 -5T329 -11Q268 -11 220 3T141 46T93 116T77 211V315Q77 373 94 416T143 487T215
529T303 543ZM378 824Q408 824 429 824T478 824Q486 824 488 818T485 807Q461 778 441 753T399 703T349 644Q347 641 343 639T332 636Q313 636 297 636T262 636Q281 666 300 697T339 760T378 824Z" />
<glyph unicode="&#xea;" horiz-adv-x="600" d="M303 543Q362 543 411 519T489 445T519 318V245Q519 242 518 240T514 236T508 234H249Q232 234 215 234T182 234H152L139 299H429Q429 304 429 309T429 319Q429 358 421 386T394 433Q378 448 355 455T303 463Q238
463 203 429T168 316V211Q168 189 172 171T183 137T202 110Q222 90 254 81T330 71Q366 71 394 75T446 88T496 111H511Q511 93 511 75T511 40Q511 38 510 36T507 32Q495 20 468 10T405 -5T329 -11Q268 -11 220 3T141 46T93 116T77 211V315Q77 373 94 416T143 487T215
529T303 543ZM268 823Q283 823 298 823T328 823Q336 823 341 819T360 801Q367 792 386 772T429 724T477 670T522 621Q503 621 486 621T449 621Q438 621 433 623T420 632Q407 645 372 681T285 770L331 749H278L323 770Q272 718 238 683T176 621H110Q106 621 104
622T100 625T99 630Q99 634 103 638T120 658Q132 672 152 694T195 742T238 789T268 823Z" />
<glyph unicode="&#xeb;" horiz-adv-x="600" d="M303 543Q362 543 411 519T489 445T519 318V245Q519 242 518 240T514 236T508 234H249Q232 234 215 234T182 234H152L139 299H429Q429 304 429 309T429 319Q429 358 421 386T394 433Q378 448 355 455T303 463Q238
463 203 429T168 316V211Q168 189 172 171T183 137T202 110Q222 90 254 81T330 71Q366 71 394 75T446 88T496 111H511Q511 93 511 75T511 40Q511 38 510 36T507 32Q495 20 468 10T405 -5T329 -11Q268 -11 220 3T141 46T93 116T77 211V315Q77 373 94 416T143 487T215
529T303 543ZM144 761Q169 761 194 761T245 761Q249 761 251 760T254 756T256 750V649Q231 649 206 649T155 649Q152 649 150 650T146 654T144 660V761ZM352 761Q377 761 402 761T453 761Q457 761 459 760T462 756T464 750V649Q439 649 414 649T363 649Q360 649
358 650T354 654T352 660V761Z" />
<glyph unicode="&#xec;" horiz-adv-x="350" d="M147 11Q147 48 147 92T147 183T147 277T147 367T147 449H133Q125 449 116 449T96 449T77 449T57 449Q53 449 50 452T46 460Q46 477 46 495T46 532Q63 532 81 532T120 532T159 532T195 532T228 532Q231 532 233 531T237
527T239 521Q239 470 239 416T239 306T239 197T239 92Q239 77 239 62T239 31T239 0Q217 0 199 0T158 0Q154 0 151 3T147 11ZM120 823Q140 791 159 760T198 697T236 635Q219 635 202 635T165 635Q159 635 155 637T148 643Q120 677 99 702T57 752T12 806Q8 811 10
817T19 823Q37 823 52 823T84 823T120 823Z" />
<glyph unicode="&#xed;" horiz-adv-x="350" d="M147 11Q147 48 147 92T147 183T147 277T147 367T147 449H133Q125 449 116 449T96 449T77 449T57 449Q53 449 50 452T46 460Q46 477 46 495T46 532Q63 532 81 532T120 532T159 532T195 532T228 532Q231 532 233 531T237
527T239 521Q239 470 239 416T239 306T239 197T239 92Q239 77 239 62T239 31T239 0Q217 0 199 0T158 0Q154 0 151 3T147 11ZM266 823Q296 823 317 823T366 823Q374 823 376 817T373 806Q349 777 329 752T287 702T237 643Q235 640 231 638T220 635Q201 635 185 635T150
635Q169 665 188 696T227 759T266 823Z" />
<glyph unicode="&#xee;" horiz-adv-x="350" d="M147 11Q147 48 147 92T147 183T147 277T147 367T147 449H133Q125 449 116 449T96 449T77 449T57 449Q53 449 50 452T46 460Q46 477 46 495T46 532Q63 532 81 532T120 532T159 532T195 532T228 532Q231 532 233 531T237
527T239 521Q239 470 239 416T239 306T239 197T239 92Q239 77 239 62T239 31T239 0Q217 0 199 0T158 0Q154 0 151 3T147 11ZM156 822Q171 822 186 822T216 822Q224 822 229 818T248 800Q255 791 274 771T317 723T365 669T410 620Q391 620 374 620T337 620Q326 620
321 622T308 631Q295 644 260 680T173 769L219 748H166L211 769Q160 717 126 682T64 620H-2Q-6 620 -8 621T-12 624T-13 629Q-13 633 -9 637T8 657Q20 671 40 693T83 741T126 788T156 822Z" />
<glyph unicode="&#xef;" horiz-adv-x="350" d="M147 11Q147 48 147 92T147 183T147 277T147 367T147 449H133Q125 449 116 449T96 449T77 449T57 449Q53 449 50 452T46 460Q46 477 46 495T46 532Q63 532 81 532T120 532T159 532T195 532T228 532Q231 532 233 531T237
527T239 521Q239 470 239 416T239 306T239 197T239 92Q239 77 239 62T239 31T239 0Q217 0 199 0T158 0Q154 0 151 3T147 11ZM32 760Q57 760 82 760T133 760Q137 760 139 759T142 755T144 749V648Q119 648 94 648T43 648Q40 648 38 649T34 653T32 659V760ZM240 760Q265
760 290 760T341 760Q345 760 347 759T350 755T352 749V648Q327 648 302 648T251 648Q248 648 246 649T242 653T240 659V760Z" />
<glyph unicode="&#xf0;" horiz-adv-x="600" d="M534 732Q534 718 534 705T534 678Q534 673 533 670T530 664T521 660L388 623Q380 622 370 622T351 621T334 618L117 559Q117 574 117 586T117 612Q117 621 120 624T131 630L289 673Q300 676 309 676T328 676T344
678L534 732ZM259 505Q313 505 346 490T406 447H447V341Q416 380 376 402T284 425Q246 425 219 408T178 362T164 295V212Q164 190 168 171T181 135T203 107Q219 92 241 84T293 75Q341 75 372 94T420 145T436 218V315Q436 364 430 403T407 479T363 553T293 637T191
741V756Q214 756 237 756T284 756Q290 756 294 755T304 748Q359 693 398 648T462 562T501 483T521 403T527 315V220Q527 152 497 100T416 18T299 -11Q231 -11 180 16T101 91T73 203V301Q73 362 97 408T165 479T259 505Z" />
<glyph unicode="&#xf1;" horiz-adv-x="600" d="M514 0Q492 0 474 0T433 0Q430 0 428 1T424 5T422 11Q422 72 422 132T422 253T422 375Q422 416 403 435T347 455Q326 455 304 449T260 429T216 396T170 348V443H200Q223 473 249 495T307 530T373 543Q407 543 433
532T477 501T504 454T514 393Q514 345 514 297T514 201T514 103Q514 77 514 52T514 0ZM185 0Q171 0 158 0T132 0T104 0Q101 0 99 0T96 2T94 6T93 11Q93 64 93 117T93 222T93 327T93 433Q93 465 93 490T93 532Q109 532 122 532T148 532T174 532Q178 532 180 531T183
527T185 521Q185 435 185 348T185 174T185 0ZM383 726Q410 726 433 740T475 779H489Q489 768 489 756T489 733T489 713Q489 706 488 702T481 690Q466 671 440 659T381 647Q351 647 331 655T293 675T258 695T217 704Q190 704 167 690T125 651H111Q111 662 111 674T111
697T111 717Q111 724 112 728T119 740Q135 760 160 771T219 783Q249 783 269 775T307 755T342 735T383 726Z" />
<glyph unicode="&#xf2;" horiz-adv-x="600" d="M300 543Q351 543 393 527T465 481T512 412T528 324V213Q528 147 499 97T417 18T300 -11Q249 -11 207 5T135 50T88 120T72 208V319Q72 386 101 436T183 514T300 543ZM305 459Q259 459 228 440T180 389T163 316V215Q163
182 173 156T202 110Q219 93 242 83T295 73Q341 73 372 92T420 144T437 216V317Q437 352 428 379T399 424Q383 441 359 450T305 459ZM227 824Q247 792 266 761T305 698T343 636Q326 636 309 636T272 636Q266 636 262 638T255 644Q227 678 206 703T164 753T119 807Q115
812 117 818T126 824Q144 824 159 824T191 824T227 824Z" />
<glyph unicode="&#xf3;" horiz-adv-x="600" d="M300 543Q351 543 393 527T465 481T512 412T528 324V213Q528 147 499 97T417 18T300 -11Q249 -11 207 5T135 50T88 120T72 208V319Q72 386 101 436T183 514T300 543ZM305 459Q259 459 228 440T180 389T163 316V215Q163
182 173 156T202 110Q219 93 242 83T295 73Q341 73 372 92T420 144T437 216V317Q437 352 428 379T399 424Q383 441 359 450T305 459ZM373 824Q403 824 424 824T473 824Q481 824 483 818T480 807Q456 778 436 753T394 703T344 644Q342 641 338 639T327 636Q308 636
292 636T257 636Q276 666 295 697T334 760T373 824Z" />
<glyph unicode="&#xf4;" horiz-adv-x="600" d="M300 543Q351 543 393 527T465 481T512 412T528 324V213Q528 147 499 97T417 18T300 -11Q249 -11 207 5T135 50T88 120T72 208V319Q72 386 101 436T183 514T300 543ZM305 459Q259 459 228 440T180 389T163 316V215Q163
182 173 156T202 110Q219 93 242 83T295 73Q341 73 372 92T420 144T437 216V317Q437 352 428 379T399 424Q383 441 359 450T305 459ZM263 823Q278 823 293 823T323 823Q331 823 336 819T355 801Q362 792 381 772T424 724T472 670T517 621Q498 621 481 621T444 621Q433
621 428 623T415 632Q402 645 367 681T280 770L326 749H273L318 770Q267 718 233 683T171 621H105Q101 621 99 622T95 625T94 630Q94 634 98 638T115 658Q127 672 147 694T190 742T233 789T263 823Z" />
<glyph unicode="&#xf5;" horiz-adv-x="600" d="M300 543Q351 543 393 527T465 481T512 412T528 324V213Q528 147 499 97T417 18T300 -11Q249 -11 207 5T135 50T88 120T72 208V319Q72 386 101 436T183 514T300 543ZM305 459Q259 459 228 440T180 389T163 316V215Q163
182 173 156T202 110Q219 93 242 83T295 73Q341 73 372 92T420 144T437 216V317Q437 352 428 379T399 424Q383 441 359 450T305 459ZM382 726Q409 726 432 740T474 779H488Q488 768 488 756T488 733T488 713Q488 706 487 702T480 690Q465 671 439 659T380 647Q350
647 330 655T292 675T257 695T216 704Q189 704 166 690T124 651H110Q110 662 110 674T110 697T110 717Q110 724 111 728T118 740Q134 760 159 771T218 783Q248 783 268 775T306 755T341 735T382 726Z" />
<glyph unicode="&#xf6;" horiz-adv-x="600" d="M300 543Q351 543 393 527T465 481T512 412T528 324V213Q528 147 499 97T417 18T300 -11Q249 -11 207 5T135 50T88 120T72 208V319Q72 386 101 436T183 514T300 543ZM305 459Q259 459 228 440T180 389T163 316V215Q163
182 173 156T202 110Q219 93 242 83T295 73Q341 73 372 92T420 144T437 216V317Q437 352 428 379T399 424Q383 441 359 450T305 459ZM139 761Q164 761 189 761T240 761Q244 761 246 760T249 756T251 750V649Q226 649 201 649T150 649Q147 649 145 650T141 654T139
660V761ZM347 761Q372 761 397 761T448 761Q452 761 454 760T457 756T459 750V649Q434 649 409 649T358 649Q355 649 353 650T349 654T347 660V761Z" />
<glyph unicode="&#xf7;" horiz-adv-x="600" d="M69 344H519Q525 344 528 341T531 333Q531 313 531 295T531 256H80Q77 256 75 257T71 261T69 267Q69 288 69 306T69 344ZM228 551Q251 551 273 551T317 551T361 551Q365 551 367 550T370 546T372 540V423Q350 423
328 423T284 423T239 423Q236 423 234 424T230 428T228 434V551ZM228 177Q251 177 273 177T317 177T361 177Q365 177 367 176T370 172T372 166V49Q350 49 328 49T284 49T239 49Q236 49 234 50T230 54T228 60V177Z" />
<glyph unicode="&#xf8;" horiz-adv-x="600" d="M505 592Q495 572 485 553T464 514T444 477L448 404H383L395 415Q393 394 385 370T362 315Q327 250 292 185T222 55Q222 51 222 46T223 36Q216 21 208 6T192 -24T177 -51Q173 -57 171 -58T162 -60Q158 -60 148 -60T127
-60T107 -60T94 -60Q102 -44 112 -24T133 15T151 48L168 132H210L203 122Q205 137 209 153T220 187T239 225Q274 290 309 354T378 482Q378 486 378 491T376 500Q386 520 395 539T414 576Q419 587 423 589T435 592Q442 592 451 592T470 592T490 592T505 592ZM300
543Q351 543 393 527T465 481T512 412T528 324V213Q528 147 499 97T417 18T300 -11Q249 -11 207 5T135 50T88 120T72 208V319Q72 386 101 436T183 514T300 543ZM305 459Q259 459 228 440T180 389T163 316V215Q163 182 173 156T202 110Q219 93 242 83T295 73Q341
73 372 92T420 144T437 216V317Q437 352 428 379T399 424Q383 441 359 450T305 459Z" />
<glyph unicode="&#xf9;" horiz-adv-x="600" d="M173 532Q177 532 179 531T182 527T184 521Q184 476 184 430T184 337T184 245T184 157Q184 119 203 100T256 80Q280 80 302 86T345 104T388 136T432 183V89H403Q380 59 355 36T300 1T233 -11Q200 -11 174 0T130 31T103
77T93 136Q93 181 93 225T93 315T93 405Q93 437 93 468T93 532Q113 532 133 532T173 532ZM498 532Q502 532 504 531T507 527T509 521Q509 451 509 381T509 240T509 99Q509 78 509 60T509 26T509 0Q495 0 482 0T455 0T428 0Q425 0 423 1T419 5T417 11Q417 98 417
185T417 359T417 532Q432 532 445 532T471 532T498 532ZM228 824Q248 792 267 761T306 698T344 636Q327 636 310 636T273 636Q267 636 263 638T256 644Q228 678 207 703T165 753T120 807Q116 812 118 818T127 824Q145 824 160 824T192 824T228 824Z" />
<glyph unicode="&#xfa;" horiz-adv-x="600" d="M173 532Q177 532 179 531T182 527T184 521Q184 476 184 430T184 337T184 245T184 157Q184 119 203 100T256 80Q280 80 302 86T345 104T388 136T432 183V89H403Q380 59 355 36T300 1T233 -11Q200 -11 174 0T130 31T103
77T93 136Q93 181 93 225T93 315T93 405Q93 437 93 468T93 532Q113 532 133 532T173 532ZM498 532Q502 532 504 531T507 527T509 521Q509 451 509 381T509 240T509 99Q509 78 509 60T509 26T509 0Q495 0 482 0T455 0T428 0Q425 0 423 1T419 5T417 11Q417 98 417
185T417 359T417 532Q432 532 445 532T471 532T498 532ZM374 824Q404 824 425 824T474 824Q482 824 484 818T481 807Q457 778 437 753T395 703T345 644Q343 641 339 639T328 636Q309 636 293 636T258 636Q277 666 296 697T335 760T374 824Z" />
<glyph unicode="&#xfb;" horiz-adv-x="600" d="M173 532Q177 532 179 531T182 527T184 521Q184 476 184 430T184 337T184 245T184 157Q184 119 203 100T256 80Q280 80 302 86T345 104T388 136T432 183V89H403Q380 59 355 36T300 1T233 -11Q200 -11 174 0T130 31T103
77T93 136Q93 181 93 225T93 315T93 405Q93 437 93 468T93 532Q113 532 133 532T173 532ZM498 532Q502 532 504 531T507 527T509 521Q509 451 509 381T509 240T509 99Q509 78 509 60T509 26T509 0Q495 0 482 0T455 0T428 0Q425 0 423 1T419 5T417 11Q417 98 417
185T417 359T417 532Q432 532 445 532T471 532T498 532ZM264 823Q279 823 294 823T324 823Q332 823 337 819T356 801Q363 792 382 772T425 724T473 670T518 621Q499 621 482 621T445 621Q434 621 429 623T416 632Q403 645 368 681T281 770L327 749H274L319 770Q268
718 234 683T172 621H106Q102 621 100 622T96 625T95 630Q95 634 99 638T116 658Q128 672 148 694T191 742T234 789T264 823Z" />
<glyph unicode="&#xfc;" horiz-adv-x="600" d="M173 532Q177 532 179 531T182 527T184 521Q184 476 184 430T184 337T184 245T184 157Q184 119 203 100T256 80Q280 80 302 86T345 104T388 136T432 183V89H403Q380 59 355 36T300 1T233 -11Q200 -11 174 0T130 31T103
77T93 136Q93 181 93 225T93 315T93 405Q93 437 93 468T93 532Q113 532 133 532T173 532ZM498 532Q502 532 504 531T507 527T509 521Q509 451 509 381T509 240T509 99Q509 78 509 60T509 26T509 0Q495 0 482 0T455 0T428 0Q425 0 423 1T419 5T417 11Q417 98 417
185T417 359T417 532Q432 532 445 532T471 532T498 532ZM140 761Q165 761 190 761T241 761Q245 761 247 760T250 756T252 750V649Q227 649 202 649T151 649Q148 649 146 650T142 654T140 660V761ZM348 761Q373 761 398 761T449 761Q453 761 455 760T458 756T460
750V649Q435 649 410 649T359 649Q356 649 354 650T350 654T348 660V761Z" />
<glyph unicode="&#xfd;" horiz-adv-x="600" d="M540 532Q545 532 550 528T552 516Q528 439 504 365T457 217T412 73T370 -67Q356 -114 335 -143T282 -186T206 -200Q195 -200 180 -200T152 -200T128 -200T115 -200Q110 -200 107 -198T104 -189V-118H119Q140 -118
159 -118T199 -118Q233 -118 254 -103T286 -51Q293 -28 307 18T339 127T379 258T421 398T461 532Q470 532 479 532T499 532T519 532T540 532ZM131 532Q140 532 144 530T150 520Q170 461 189 407T226 303T260 211T288 134T307 76H350L332 17H265Q256 17 250 19T239
30T226 58Q219 76 205 114T171 202T129 309T86 423T45 532Q55 532 65 532T87 532T109 532T131 532ZM385 824Q415 824 436 824T485 824Q493 824 495 818T492 807Q468 778 448 753T406 703T356 644Q354 641 350 639T339 636Q320 636 304 636T269 636Q288 666 307
697T346 760T385 824Z" />
<glyph unicode="&#xfe;" horiz-adv-x="600" d="M93 739Q107 739 120 739T147 739T174 739Q177 739 179 738T183 734T185 728Q185 641 185 547T185 356T185 162T185 -30T185 -212Q171 -212 158 -212T132 -212T104 -212Q101 -212 99 -211T95 -207T93 -201Q93 -137
93 -68T93 73T93 219T93 364T93 506T93 639Q93 664 93 689T93 739ZM360 543Q414 543 453 519T512 449T533 341V201Q533 151 521 112T485 45T427 4T348 -10Q314 -10 287 -2T239 23T199 61H176V148Q201 123 224 107T272 85T325 78Q365 78 390 93T429 139T442 217V319Q442
353 435 379T415 421Q402 438 383 446T338 455Q309 455 282 445T227 414T168 358V462H199Q221 489 246 507T299 534T360 543Z" />
<glyph unicode="&#xff;" horiz-adv-x="600" d="M540 532Q545 532 550 528T552 516Q528 439 504 365T457 217T412 73T370 -67Q356 -114 335 -143T282 -186T206 -200Q195 -200 180 -200T152 -200T128 -200T115 -200Q110 -200 107 -198T104 -189V-118H119Q140 -118
159 -118T199 -118Q233 -118 254 -103T286 -51Q293 -28 307 18T339 127T379 258T421 398T461 532Q470 532 479 532T499 532T519 532T540 532ZM131 532Q140 532 144 530T150 520Q170 461 189 407T226 303T260 211T288 134T307 76H350L332 17H265Q256 17 250 19T239
30T226 58Q219 76 205 114T171 202T129 309T86 423T45 532Q55 532 65 532T87 532T109 532T131 532ZM151 761Q176 761 201 761T252 761Q256 761 258 760T261 756T263 750V649Q238 649 213 649T162 649Q159 649 157 650T153 654T151 660V761ZM359 761Q384 761 409
761T460 761Q464 761 466 760T469 756T471 750V649Q446 649 421 649T370 649Q367 649 365 650T361 654T359 660V761Z" />
<glyph unicode="&#x2013;" horiz-adv-x="600" d="M50 344H539Q543 344 545 343T548 339T550 333Q550 313 550 295T550 255H61Q58 255 56 256T52 260T50 266Q50 287 50 305T50 344Z" />
<glyph unicode="&#x2014;" horiz-adv-x="600" d="M-11 344H600Q604 344 606 343T609 339T611 333Q611 313 611 295T611 255H0Q-3 255 -5 256T-9 260T-11 266Q-11 287 -11 305T-11 344Z" />
<glyph unicode="&#x2018;" horiz-adv-x="350" d="M204 750Q227 750 247 750T284 750Q272 698 260 648T235 547T209 445Q193 445 179 445T152 445T127 445T99 445Q95 445 92 447T89 452T89 460Q105 504 122 551T157 647T192 741Q194 746 196 748T204 750Z" />
<glyph unicode="&#x2019;" horiz-adv-x="350" d="M166 445Q143 445 123 445T86 445Q99 497 111 547T136 648T161 750Q178 750 192 750T218 750T244 750T271 750Q276 750 279 748T283 743T282 734Q266 690 249 643T213 548T178 453Q177 449 174 447T166 445Z" />
<glyph unicode="&#x201a;" horiz-adv-x="350" d="M162 -104Q139 -104 119 -104T82 -104Q95 -52 107 -2T131 99T157 201Q174 201 188 201T214 201T239 201T267 201Q272 201 275 199T279 194T278 186Q262 142 245 95T209 0T174 -95Q173 -99 170 -101T162 -104Z" />
<glyph unicode="&#x201c;" horiz-adv-x="600" d="M220 750Q232 750 242 750T262 750T280 750T297 750Q284 698 272 648T247 547T221 445Q204 445 191 445T167 445T144 445T118 445Q111 445 109 448T108 458Q125 505 142 553T175 648T210 743Q212 748 214 749T220
750ZM441 750Q453 750 463 750T482 750T501 750T517 750Q505 698 493 648T467 547T442 445Q425 445 412 445T387 445T365 445T338 445Q332 445 330 448T329 458Q346 505 362 553T396 648T430 743Q432 748 434 749T441 750Z" />
<glyph unicode="&#x201d;" horiz-adv-x="600" d="M394 445Q383 445 373 445T353 445T334 445T318 445Q330 496 343 547T368 648T393 750Q411 750 424 750T448 750T470 750T497 750Q504 750 506 747T507 737Q490 690 473 643T439 548T405 452Q404 448 402 447T394
445ZM174 445Q162 445 152 445T132 445T114 445T97 445Q110 496 122 547T147 648T173 750Q190 750 203 750T227 750T249 750T276 750Q283 750 285 747T286 737Q269 690 252 643T218 548T184 452Q183 448 181 447T174 445Z" />
<glyph unicode="&#x201e;" horiz-adv-x="600" d="M394 -101Q383 -101 373 -101T353 -101T334 -101T318 -101Q330 -49 343 2T368 103T393 205Q411 205 424 205T448 205T470 205T497 205Q504 205 506 202T507 192Q490 145 473 97T439 2T405 -94Q404 -98 402 -99T394
-101ZM174 -101Q162 -101 152 -101T132 -101T114 -101T97 -101Q110 -49 122 2T147 103T173 205Q190 205 203 205T227 205T249 205T276 205Q283 205 285 202T286 192Q269 145 252 97T218 2T184 -94Q183 -98 181 -99T174 -101Z" />
<glyph unicode="&#x2022;" horiz-adv-x="600" d="M421 180Q398 180 368 180T306 180T243 180T190 180Q185 180 182 183T179 191V421Q202 421 232 421T294 421T357 421T410 421Q415 421 418 418T421 410V180Z" />
<glyph unicode="&#x2039;" horiz-adv-x="400" d="M345 93V78Q323 78 301 78T257 78Q247 78 243 80T231 90Q227 94 211 111T173 151T129 197T89 239T66 263Q59 271 58 275T56 285Q56 295 56 305T56 325Q79 350 105 377T157 432T202 480T233 512Q240 519 245 520T259
522Q281 522 302 522T345 522V507Q302 462 269 426T207 360T150 299Q178 269 205 240T266 176T345 93Z" />
<glyph unicode="&#x203a;" horiz-adv-x="400" d="M56 507V522Q78 522 100 522T144 522Q154 522 158 520T170 510Q174 506 190 489T228 449T272 403T312 361T335 337Q342 330 343 326T345 315Q345 305 345 295T345 275Q322 250 296 223T244 168T199 120T168 88Q161
81 156 80T142 78Q120 78 99 78T56 78V94Q100 140 133 175T194 241T251 301Q224 332 196 361T135 425T56 507Z" />
</font>
</defs>
</svg>
